<?xml version="1.0" encoding="iso-8859-1"?>
<!-- Generator: Adobe Illustrator 16.0.4, SVG Export Plug-In . SVG Version: 6.00 Build 0)  -->
<!DOCTYPE svg PUBLIC "-//W3C//DTD SVG 1.1//EN" "http://www.w3.org/Graphics/SVG/1.1/DTD/svg11.dtd">
<svg version="1.1" id="Capa_1" xmlns="http://www.w3.org/2000/svg" xmlns:xlink="http://www.w3.org/1999/xlink" x="0px" y="0px"
	 width="68.998px" height="70.664px" viewBox="0 0 68.998 70.664" style="enable-background:new 0 0 68.998 70.664;"
	 xml:space="preserve">
<g id="_x33_0">
	<g>
		<path d="M16.74,0c-3.363,0-6.099,2.736-6.099,6.1v3.25c-2.483,0.383-4.731,1.671-6.316,3.685c-1.91,2.427-2.589,5.538-1.866,8.538
			l3.204,13.256c0.3,1.242,0.021,2.529-0.768,3.531c-0.792,1.006-1.977,1.582-3.468,1.582C0.579,39.941,0,40.628,0,41.477
			c0,0.85,0.792,1.537,1.641,1.537c2.226,0,4.292-1.003,5.666-2.752c1.377-1.749,1.865-3.993,1.344-6.153L5.447,20.853
			c-0.504-2.079-0.033-4.236,1.289-5.917c0.998-1.269,2.373-2.127,3.905-2.473v16.725c0,0.85,0.688,1.536,1.536,1.536h9.214
			c0.849,0,1.536-0.687,1.536-1.536V6.1C22.928,2.736,20.192,0,16.74,0z M19.856,27.651h-6.144V12.29h6.144V27.651z M19.856,9.217
			h-6.144V6.1c0-1.668,1.359-3.027,3.116-3.027c1.668,0,3.027,1.359,3.027,3.027V9.217z M21.392,33.796h-9.214
			c-0.849,0-1.536,0.688-1.536,1.536v18.435c0,0.85,0.688,1.536,1.536,1.536h9.214c0.849,0,1.536-0.687,1.536-1.536V35.332
			C22.928,34.483,22.24,33.796,21.392,33.796z M19.856,52.23h-6.144V36.868h6.144V52.23z M21.392,58.375h-9.214
			c-0.531,0-1.026,0.276-1.308,0.729c-0.279,0.453-0.303,1.017-0.066,1.494l4.607,9.217c0.261,0.52,0.791,0.849,1.373,0.849
			s1.113-0.329,1.374-0.849l4.607-9.217c0.236-0.478,0.213-1.041-0.066-1.494C22.418,58.651,21.923,58.375,21.392,58.375z
			 M16.784,65.693l-2.123-4.246h4.247L16.784,65.693z M67.462,9.217h-7.679V6.145c0-0.849-0.687-1.536-1.535-1.536
			s-1.536,0.688-1.536,1.536v3.072h-3.071V6.145c0-0.849-0.687-1.536-1.535-1.536c-0.85,0-1.536,0.688-1.536,1.536v3.072h-3.071
			V6.145c0-0.849-0.687-1.536-1.535-1.536c-0.85,0-1.536,0.688-1.536,1.536v3.072h-3.071V6.145c0-0.849-0.687-1.536-1.535-1.536
			c-0.85,0-1.536,0.688-1.536,1.536v3.072h-7.679c-0.849,0-1.535,0.688-1.535,1.537v49.157c0,0.85,0.687,1.536,1.535,1.536h36.856
			c0.849,0,1.536-0.687,1.536-1.536V10.754C68.998,9.904,68.311,9.217,67.462,9.217z M65.927,58.375H32.142V12.29h6.143v3.072
			c0,0.849,0.687,1.536,1.536,1.536c0.849,0,1.535-0.688,1.535-1.536V12.29h3.071v3.072c0,0.849,0.687,1.536,1.536,1.536
			c0.849,0,1.535-0.688,1.535-1.536V12.29h3.071v3.072c0,0.849,0.687,1.536,1.536,1.536c0.849,0,1.535-0.688,1.535-1.536V12.29
			h3.071v3.072c0,0.849,0.688,1.536,1.536,1.536s1.535-0.688,1.535-1.536V12.29h6.144V58.375z M56.712,27.651H41.355
			c-0.849,0-1.535,0.688-1.535,1.536c0,0.85,0.687,1.536,1.535,1.536h15.356c0.85,0,1.536-0.687,1.536-1.536
			C58.248,28.339,57.562,27.651,56.712,27.651z M56.712,33.796H41.355c-0.849,0-1.535,0.688-1.535,1.536
			c0,0.85,0.687,1.536,1.535,1.536h15.356c0.85,0,1.536-0.687,1.536-1.536C58.248,34.483,57.562,33.796,56.712,33.796z
			 M56.712,39.941H41.355c-0.849,0-1.535,0.687-1.535,1.535c0,0.85,0.687,1.537,1.535,1.537h15.356c0.85,0,1.536-0.688,1.536-1.537
			C58.248,40.628,57.562,39.941,56.712,39.941z"/>
	</g>
</g>
<g>
</g>
<g>
</g>
<g>
</g>
<g>
</g>
<g>
</g>
<g>
</g>
<g>
</g>
<g>
</g>
<g>
</g>
<g>
</g>
<g>
</g>
<g>
</g>
<g>
</g>
<g>
</g>
<g>
</g>
</svg>
