<?xml version="1.0" encoding="iso-8859-1"?>
<!-- Generator: Adobe Illustrator 16.0.4, SVG Export Plug-In . SVG Version: 6.00 Build 0)  -->
<!DOCTYPE svg PUBLIC "-//W3C//DTD SVG 1.1//EN" "http://www.w3.org/Graphics/SVG/1.1/DTD/svg11.dtd">
<svg version="1.1" id="Capa_1" xmlns="http://www.w3.org/2000/svg" xmlns:xlink="http://www.w3.org/1999/xlink" x="0px" y="0px"
	 width="79.855px" height="61.447px" viewBox="0 0 79.855 61.447" style="enable-background:new 0 0 79.855 61.447;"
	 xml:space="preserve">
<g id="_x32_1">
	<g>
		<path d="M56.181,29.443c1.343,0,2.431-1.089,2.431-2.433c0-1.343-1.088-2.432-2.431-2.432c-1.344,0-2.432,1.089-2.432,2.432
			C53.749,28.354,54.837,29.443,56.181,29.443z M59.252,19.517c0.951,0,1.722-0.771,1.722-1.723s-0.771-1.723-1.722-1.723
			s-1.723,0.771-1.723,1.723S58.301,19.517,59.252,19.517z M78.319,58.375H66.453c1.64-1.743,2.653-4.082,2.653-6.658V1.536
			C69.105,0.687,68.419,0,67.57,0h-21.5c-0.849,0-1.535,0.687-1.535,1.536v50.181c0,2.576,1.013,4.915,2.653,6.658H34.319
			c1.154-1.236,1.999-2.784,2.39-4.546l4.719-21.236c0.1-0.456-0.011-0.93-0.302-1.293c-0.293-0.366-0.731-0.576-1.198-0.576H6.143
			c-0.467,0-0.905,0.21-1.198,0.576c-0.291,0.363-0.402,0.837-0.302,1.293l4.719,21.236c0.392,1.762,1.236,3.31,2.39,4.546H1.536
			C0.687,58.375,0,59.062,0,59.911c0,0.849,0.687,1.536,1.536,1.536h76.784c0.85,0,1.536-0.688,1.536-1.536
			C79.855,59.062,79.169,58.375,78.319,58.375z M8.058,33.796h29.955l-1.365,6.145H9.423L8.058,33.796z M27.215,58.375h-8.359
			c-3.144,0-5.814-2.143-6.495-5.212l-2.255-10.15h25.859l-2.255,10.15C33.029,56.232,30.358,58.375,27.215,58.375z M66.034,51.717
			c0,3.673-2.984,6.658-6.654,6.658h-5.12c-3.669,0-6.653-2.985-6.653-6.658v-7.849c2.083,2.476,5.139,3.922,8.439,3.922
			c2.089,0,4.131-0.595,5.901-1.717c1.808-1.146,3.205-2.756,4.087-4.649V51.717z M49.944,41.87l4.428-2.807l-0.475,5.297
			C52.376,43.943,50.975,43.103,49.944,41.87z M59.368,35.897l3.917-2.482c0.729,1.578,0.919,3.345,0.532,5.07
			c-0.048,0.212-0.109,0.419-0.173,0.625L59.368,35.897z M62.165,41.839c-0.526,0.631-1.148,1.187-1.861,1.639
			c-1.025,0.648-2.174,1.023-3.346,1.145l0.562-6.272L62.165,41.839z M66.034,32.069c-0.199-0.423-0.415-0.84-0.669-1.241
			c-0.087-0.138-0.186-0.261-0.334-0.435c-0.475-0.666-1.383-0.85-2.074-0.408l-15.351,9.729V12.289h18.428V32.069z M66.034,9.217
			H47.606V3.072h18.428V9.217z"/>
	</g>
</g>
<g>
</g>
<g>
</g>
<g>
</g>
<g>
</g>
<g>
</g>
<g>
</g>
<g>
</g>
<g>
</g>
<g>
</g>
<g>
</g>
<g>
</g>
<g>
</g>
<g>
</g>
<g>
</g>
<g>
</g>
</svg>
