<?xml version="1.0" encoding="iso-8859-1"?>
<!-- Generator: Adobe Illustrator 16.0.4, SVG Export Plug-In . SVG Version: 6.00 Build 0)  -->
<!DOCTYPE svg PUBLIC "-//W3C//DTD SVG 1.1//EN" "http://www.w3.org/Graphics/SVG/1.1/DTD/svg11.dtd">
<svg version="1.1" id="Capa_1" xmlns="http://www.w3.org/2000/svg" xmlns:xlink="http://www.w3.org/1999/xlink" x="0px" y="0px"
	 width="55.284px" height="76.81px" viewBox="0 0 55.284 76.81" style="enable-background:new 0 0 55.284 76.81;"
	 xml:space="preserve">
<g id="_x33_1">
	<g>
		<path d="M53.749,18.435H46.07V1.536C46.07,0.688,45.384,0,44.534,0H10.75C9.9,0,9.214,0.688,9.214,1.536v16.898H1.535
			C0.687,18.435,0,19.121,0,19.971v55.303c0,0.849,0.687,1.536,1.535,1.536h52.214c0.849,0,1.535-0.688,1.535-1.536V19.971
			C55.284,19.121,54.598,18.435,53.749,18.435z M12.285,3.072h30.714v43.014H12.285V3.072z M3.071,21.507h6.143v24.579H3.071V21.507
			z M52.213,73.736H3.071V49.158h49.142V73.736z M52.213,46.086H46.07V21.507h6.143V46.086z M36.856,12.289H18.428
			c-0.849,0-1.535,0.688-1.535,1.537c0,0.849,0.687,1.536,1.535,1.536h18.429c0.849,0,1.535-0.688,1.535-1.536
			C38.392,12.977,37.705,12.289,36.856,12.289z M36.856,18.435H18.428c-0.849,0-1.535,0.687-1.535,1.536
			c0,0.849,0.687,1.536,1.535,1.536h18.429c0.849,0,1.535-0.688,1.535-1.536C38.392,19.121,37.705,18.435,36.856,18.435z
			 M36.856,24.579H18.428c-0.849,0-1.535,0.687-1.535,1.536s0.687,1.536,1.535,1.536h18.429c0.849,0,1.535-0.687,1.535-1.536
			S37.705,24.579,36.856,24.579z"/>
	</g>
</g>
<g>
</g>
<g>
</g>
<g>
</g>
<g>
</g>
<g>
</g>
<g>
</g>
<g>
</g>
<g>
</g>
<g>
</g>
<g>
</g>
<g>
</g>
<g>
</g>
<g>
</g>
<g>
</g>
<g>
</g>
</svg>
