<?xml version="1.0" encoding="iso-8859-1"?>
<!-- Generator: Adobe Illustrator 16.0.4, SVG Export Plug-In . SVG Version: 6.00 Build 0)  -->
<!DOCTYPE svg PUBLIC "-//W3C//DTD SVG 1.1//EN" "http://www.w3.org/Graphics/SVG/1.1/DTD/svg11.dtd">
<svg version="1.1" id="Capa_1" xmlns="http://www.w3.org/2000/svg" xmlns:xlink="http://www.w3.org/1999/xlink" x="0px" y="0px"
	 width="59.712px" height="66.824px" viewBox="0 0 59.712 66.824" style="enable-background:new 0 0 59.712 66.824;"
	 xml:space="preserve">
<g id="_x32_6">
	<g>
		<path d="M56.82,63.752H35.108c2.146-0.761,4.116-1.892,5.82-3.336l0.075,0.068l0.727-0.797c0.649-0.618,1.254-1.279,1.81-1.984
			l13.858-15.194c2.306-2.619,2.944-6.004,1.667-8.833c-1.183-2.613-3.72-4.174-6.79-4.174H11.46c-0.85,0-1.536,0.688-1.536,1.537
			v15.148c0,8.105,5.206,15,12.44,17.564H1.536C0.687,63.752,0,64.438,0,65.288c0,0.849,0.687,1.536,1.536,1.536H56.82
			c0.849,0,1.536-0.688,1.536-1.536C58.356,64.438,57.669,63.752,56.82,63.752z M47.548,46.188V32.574h4.727
			c1.857,0,3.311,0.865,3.989,2.368c0.775,1.713,0.326,3.837-1.152,5.518l-7.801,8.553C47.452,48.089,47.548,47.15,47.548,46.188z
			 M28.563,61.762c-8.584,0-15.568-6.987-15.568-15.574V32.574h31.481v13.613c0,3.593-1.235,6.896-3.286,9.534l-1.654,1.813
			c-2.786,2.612-6.519,4.227-10.629,4.227H28.563z M19.106,24.579c0.849,0,1.536-0.688,1.536-1.536V1.536
			c0-0.85-0.688-1.536-1.536-1.536s-1.535,0.687-1.535,1.536v21.507C17.571,23.892,18.258,24.579,19.106,24.579z M25.249,24.579
			c0.85,0,1.536-0.688,1.536-1.536v-12.29c0-0.849-0.687-1.536-1.536-1.536c-0.849,0-1.535,0.688-1.535,1.536v12.29
			C23.714,23.892,24.4,24.579,25.249,24.579z"/>
	</g>
</g>
<g>
</g>
<g>
</g>
<g>
</g>
<g>
</g>
<g>
</g>
<g>
</g>
<g>
</g>
<g>
</g>
<g>
</g>
<g>
</g>
<g>
</g>
<g>
</g>
<g>
</g>
<g>
</g>
<g>
</g>
</svg>
