<?xml version="1.0" encoding="iso-8859-1"?>
<!-- Generator: Adobe Illustrator 16.0.4, SVG Export Plug-In . SVG Version: 6.00 Build 0)  -->
<!DOCTYPE svg PUBLIC "-//W3C//DTD SVG 1.1//EN" "http://www.w3.org/Graphics/SVG/1.1/DTD/svg11.dtd">
<svg version="1.1" id="Capa_1" xmlns="http://www.w3.org/2000/svg" xmlns:xlink="http://www.w3.org/1999/xlink" x="0px" y="0px"
	 width="72.099px" height="72.043px" viewBox="0 0 72.099 72.043" style="enable-background:new 0 0 72.099 72.043;"
	 xml:space="preserve">
<g id="_x33_2">
	<g>
		<path d="M70.449,56.976c-1.904-1.905-5.106-2.029-7.213-0.419L17.609,3.449C14.021-0.823,7.111-1.279,2.9,2.944
			c-1.956,1.957-3.012,4.663-2.892,7.43s1.403,5.373,3.51,7.141L56.62,63.166c-0.751,0.957-1.18,2.117-1.18,3.354
			c0,1.461,0.569,2.835,1.658,3.921c1.032,1.032,2.406,1.603,3.866,1.603c1.461,0,2.835-0.57,3.866-1.603l5.675-5.673
			C72.639,62.634,72.639,59.166,70.449,56.976z M3.077,10.241C2.993,8.307,3.701,6.485,5.201,4.985
			c1.289-1.29,3.002-2.002,4.825-2.002c2.021,0,3.93,0.892,5.243,2.455l45.327,52.761l-2.331,2.328L5.507,15.175
			C4.025,13.929,3.161,12.177,3.077,10.241z M68.335,62.595l-5.675,5.674c-0.906,0.906-2.427,0.961-3.446-0.054
			c-0.453-0.453-0.702-1.057-0.702-1.695c0-0.64,0.249-1.242,0.702-1.695l5.675-5.677c0.453-0.453,1.056-0.702,1.694-0.702
			s1.242,0.249,1.752,0.76c0.452,0.452,0.701,1.056,0.701,1.694C69.036,61.539,68.787,62.142,68.335,62.595z"/>
	</g>
</g>
<g>
</g>
<g>
</g>
<g>
</g>
<g>
</g>
<g>
</g>
<g>
</g>
<g>
</g>
<g>
</g>
<g>
</g>
<g>
</g>
<g>
</g>
<g>
</g>
<g>
</g>
<g>
</g>
<g>
</g>
</svg>
