<?xml version="1.0" encoding="iso-8859-1"?>
<!-- Generator: Adobe Illustrator 16.0.4, SVG Export Plug-In . SVG Version: 6.00 Build 0)  -->
<!DOCTYPE svg PUBLIC "-//W3C//DTD SVG 1.1//EN" "http://www.w3.org/Graphics/SVG/1.1/DTD/svg11.dtd">
<svg version="1.1" id="Capa_1" xmlns="http://www.w3.org/2000/svg" xmlns:xlink="http://www.w3.org/1999/xlink" x="0px" y="0px"
	 width="36.856px" height="79.882px" viewBox="0 0 36.856 79.882" style="enable-background:new 0 0 36.856 79.882;"
	 xml:space="preserve">
<g id="_x32_3">
	<g>
		<path d="M36.856,33.629c0-6.778-3.719-12.693-9.214-15.846V5.761C27.643,2.584,25.06,0,21.884,0h-6.911
			c-3.176,0-5.759,2.584-5.759,5.761v12.022C3.719,20.935,0,26.851,0,33.629v7.849c0,0.049,0.01,0.095,0.015,0.144
			c0.003,0.036,0,0.072,0.006,0.108l6.143,36.868c0.124,0.741,0.766,1.284,1.516,1.284h21.499c0.75,0,1.392-0.543,1.515-1.284
			l6.144-36.868c0.006-0.036,0.003-0.072,0.006-0.108c0.005-0.048,0.015-0.095,0.015-0.144V33.629z M12.285,5.761
			c0-1.481,1.206-2.688,2.688-2.688h6.911c1.481,0,2.688,1.206,2.688,2.688v0.385H12.285V5.761z M12.285,9.218h12.286v7.169
			c-1.876-0.652-3.881-1.024-5.976-1.024H18.26c-2.095,0-4.1,0.372-5.975,1.024V9.218z M3.071,33.629
			c0-8.377,6.814-15.194,15.188-15.194h0.336c8.375,0,15.189,6.817,15.189,15.194v6.312H3.071V33.629z M32.997,46.086H3.858
			l-0.512-3.072h30.162L32.997,46.086z M27.876,76.81H8.98L4.371,49.158h28.113L27.876,76.81z"/>
	</g>
</g>
<g>
</g>
<g>
</g>
<g>
</g>
<g>
</g>
<g>
</g>
<g>
</g>
<g>
</g>
<g>
</g>
<g>
</g>
<g>
</g>
<g>
</g>
<g>
</g>
<g>
</g>
<g>
</g>
<g>
</g>
</svg>
