<?xml version="1.0" encoding="iso-8859-1"?>
<!-- Generator: Adobe Illustrator 16.0.4, SVG Export Plug-In . SVG Version: 6.00 Build 0)  -->
<!DOCTYPE svg PUBLIC "-//W3C//DTD SVG 1.1//EN" "http://www.w3.org/Graphics/SVG/1.1/DTD/svg11.dtd">
<svg version="1.1" id="Capa_1" xmlns="http://www.w3.org/2000/svg" xmlns:xlink="http://www.w3.org/1999/xlink" x="0px" y="0px"
	 width="79.289px" height="92.504px" viewBox="0 0 79.289 92.504" style="enable-background:new 0 0 79.289 92.504;"
	 xml:space="preserve">
<g id="_x31_">
	<g>
		<path d="M51.963,50.578h-2.125c-0.798,0-1.447-0.649-1.447-1.448v-3.211c0-0.44,0.247-0.864,0.661-1.134
			c6.363-4.133,10.316-12.179,10.316-20.997C59.369,10.671,50.617,0,39.859,0C29.102,0,20.35,10.671,20.35,23.788
			c0,8.754,3.909,16.771,10.202,20.925c0.414,0.273,0.661,0.701,0.661,1.144v3.273c0,0.799-0.649,1.448-1.448,1.448h-2.333
			C12.306,50.578,0,62.889,0,78.02v11.412c0,1.697,1.375,3.072,3.071,3.072h73.146c1.696,0,3.071-1.375,3.071-3.072v-11.52
			C79.289,62.84,67.031,50.578,51.963,50.578z M39.859,3.072c3.573,0,6.869,1.452,9.565,3.891
			c-2.948,6.099-9.171,10.004-16.088,10.004c-2.912,0-5.769-0.705-8.321-2.033C27.651,7.928,33.298,3.072,39.859,3.072z
			 M29.765,53.65c2.496,0,4.52-2.023,4.52-4.521v-3.273c0-1.504-0.786-2.879-2.041-3.708c-5.243-3.461-8.822-10.383-8.822-18.36
			c0-2.041,0.244-4.008,0.68-5.871c2.86,1.389,6.021,2.122,9.235,2.122c7.693,0,14.658-4.135,18.303-10.683
			c2.879,3.731,4.658,8.816,4.658,14.432c0,8.025-3.622,14.98-8.917,18.421c-1.267,0.822-2.062,2.2-2.062,3.71v3.211
			c0,2.497,2.023,4.521,4.52,4.521h1.841c-2.454,4.407-7.071,7.17-12.227,7.17c-5.12,0-9.757-2.77-12.218-7.165
			c0.066,0,0.131-0.005,0.197-0.005H29.765z M76.217,89.432H64.199c0.006-0.055,0.017-0.109,0.017-0.166v-12.29
			c0-0.85-0.687-1.536-1.536-1.536c-0.849,0-1.535,0.687-1.535,1.536v12.29c0,0.057,0.011,0.111,0.017,0.166H18.128
			c0.006-0.055,0.017-0.109,0.017-0.166v-12.29c0-0.85-0.688-1.536-1.536-1.536s-1.535,0.687-1.535,1.536v12.29
			c0,0.057,0.011,0.111,0.017,0.166H3.071V78.02c0-12.211,9.101-22.396,20.852-24.111c2.781,6.078,8.816,9.984,15.53,9.984
			c6.78,0,12.793-3.919,15.557-10.045c11.957,1.5,21.208,11.698,21.208,24.064V89.432z"/>
	</g>
</g>
<g>
</g>
<g>
</g>
<g>
</g>
<g>
</g>
<g>
</g>
<g>
</g>
<g>
</g>
<g>
</g>
<g>
</g>
<g>
</g>
<g>
</g>
<g>
</g>
<g>
</g>
<g>
</g>
<g>
</g>
</svg>
