<?xml version="1.0" encoding="iso-8859-1"?>
<!-- Generator: Adobe Illustrator 16.0.4, SVG Export Plug-In . SVG Version: 6.00 Build 0)  -->
<!DOCTYPE svg PUBLIC "-//W3C//DTD SVG 1.1//EN" "http://www.w3.org/Graphics/SVG/1.1/DTD/svg11.dtd">
<svg version="1.1" id="Capa_1" xmlns="http://www.w3.org/2000/svg" xmlns:xlink="http://www.w3.org/1999/xlink" x="0px" y="0px"
	 width="79.288px" height="92.504px" viewBox="0 0 79.288 92.504" style="enable-background:new 0 0 79.288 92.504;"
	 xml:space="preserve">
<g id="_x33_">
	<g>
		<path d="M51.963,50.578h-2.125c-0.798,0-1.447-0.649-1.447-1.448v-3.211c0-0.44,0.247-0.864,0.661-1.134
			c6.363-4.133,10.316-12.179,10.316-20.997C59.368,10.671,50.616,0,39.859,0C29.102,0,20.35,10.671,20.35,23.788
			c0,8.754,3.909,16.771,10.202,20.925c0.414,0.273,0.661,0.701,0.661,1.144v3.273c0,0.799-0.649,1.448-1.448,1.448h-2.333
			c-9.018,0-17.03,4.376-22.033,11.116c-0.207,0.17-0.367,0.396-0.468,0.658C1.827,66.798,0,72.198,0,78.02v11.412
			c0,1.697,1.375,3.072,3.071,3.072h73.146c1.696,0,3.071-1.375,3.071-3.072v-11.52C79.288,62.84,67.03,50.578,51.963,50.578z
			 M39.859,3.072c3.572,0,6.868,1.452,9.564,3.891c-2.947,6.099-9.172,10.004-16.088,10.004c-2.912,0-5.769-0.705-8.321-2.033
			C27.651,7.928,33.298,3.072,39.859,3.072z M27.432,53.65h2.333c2.496,0,4.52-2.023,4.52-4.521v-3.273
			c0-1.504-0.786-2.879-2.041-3.708c-5.243-3.461-8.822-10.383-8.822-18.36c0-2.041,0.243-4.008,0.68-5.871
			c2.86,1.389,6.021,2.122,9.235,2.122c7.693,0,14.658-4.135,18.303-10.683c2.879,3.731,4.658,8.816,4.658,14.432
			c0,8.025-3.622,14.98-8.917,18.421c-1.267,0.822-2.061,2.2-2.061,3.71v3.211c0,2.497,2.023,4.521,4.519,4.521h1.841
			c-2.453,4.407-7.07,7.17-12.227,7.17c-5.119,0-9.757-2.77-12.218-7.165C27.3,53.655,27.365,53.65,27.432,53.65z M15.082,89.432
			H3.071v-3.239h12.002c0.021,0,0.037-0.011,0.058-0.012L15.082,89.432z M15.177,83.142c-0.036-0.003-0.067-0.021-0.104-0.021H3.071
			V78.02c0-4.845,1.438-9.367,3.899-13.171c4.935,1.989,8.294,7.03,8.294,12.391L15.177,83.142z M18.153,89.432l0.183-12.528
			c0-6.33-3.771-12.066-9.4-14.689c3.754-4.387,9.027-7.436,14.987-8.306c2.78,6.078,8.815,9.984,15.529,9.984
			c6.78,0,12.793-3.919,15.557-10.045c6.077,0.762,11.451,3.771,15.271,8.171c-6.058,2.467-10.177,8.629-10.177,15.27l0.183,12.144
			H18.153z M76.217,89.432H63.357l-0.048-3.239h12.907V89.432z M76.217,83.12H63.265l-0.091-6.217
			c0-5.626,3.673-10.667,8.975-12.441c2.568,3.85,4.068,8.474,4.068,13.45V83.12z M55.001,80.048V68.623
			c0-0.569-0.315-1.093-0.816-1.357c-0.507-0.267-1.109-0.23-1.583,0.087l-12.285,8.353c-0.421,0.286-0.673,0.762-0.673,1.271v3.072
			c-0.849,0-1.535,0.688-1.535,1.536c0,0.85,0.687,1.536,1.535,1.536h15.357c0.849,0,1.535-0.687,1.535-1.536
			C56.536,80.735,55.85,80.048,55.001,80.048z M51.93,80.048h-9.214v-2.259l9.214-6.265V80.048z"/>
	</g>
</g>
<g>
</g>
<g>
</g>
<g>
</g>
<g>
</g>
<g>
</g>
<g>
</g>
<g>
</g>
<g>
</g>
<g>
</g>
<g>
</g>
<g>
</g>
<g>
</g>
<g>
</g>
<g>
</g>
<g>
</g>
</svg>
