<?xml version="1.0" encoding="iso-8859-1"?>
<!-- Generator: Adobe Illustrator 16.0.4, SVG Export Plug-In . SVG Version: 6.00 Build 0)  -->
<!DOCTYPE svg PUBLIC "-//W3C//DTD SVG 1.1//EN" "http://www.w3.org/Graphics/SVG/1.1/DTD/svg11.dtd">
<svg version="1.1" id="Capa_1" xmlns="http://www.w3.org/2000/svg" xmlns:xlink="http://www.w3.org/1999/xlink" x="0px" y="0px"
	 width="79.343px" height="90.68px" viewBox="0 0 79.343 90.68" style="enable-background:new 0 0 79.343 90.68;"
	 xml:space="preserve">
<g id="_x34_">
	<g>
		<path d="M52,49.51h-2.127c-0.8,0-1.451-0.606-1.451-1.353v-3.144c0-0.396,0.238-0.785,0.638-1.038
			c6.383-4.056,10.349-11.959,10.349-20.625C59.408,10.476,50.65,0,39.887,0S20.365,10.476,20.365,23.351
			c0,8.603,3.922,16.479,10.234,20.555c0.398,0.257,0.637,0.648,0.637,1.048v3.204c0,0.746-0.651,1.353-1.451,1.353H27.45
			C12.314,49.51,0,61.589,0,76.436v11.172c0,1.696,1.375,3.072,3.071,3.072h73.2c1.696,0,3.071-1.376,3.071-3.072V76.331
			C79.343,61.542,67.077,49.51,52,49.51z M50.165,54.674v10.611l-7.942-3.354L50.165,54.674z M39.887,3.072
			c3.573,0,6.87,1.419,9.567,3.805c-2.953,5.954-9.178,9.765-16.095,9.765c-2.911,0-5.767-0.688-8.319-1.98
			C27.683,7.816,33.328,3.072,39.887,3.072z M28.666,54.674l7.942,7.258l-7.942,3.354V54.674z M37.88,87.607h-21.5V76.816
			c0-0.85-0.687-1.536-1.535-1.536c-0.85,0-1.536,0.687-1.536,1.536v10.791H3.071V76.436c0-12.508,9.975-22.84,22.523-23.777V67.6
			c0,0.515,0.258,0.996,0.687,1.279c0.429,0.285,0.969,0.335,1.445,0.135l10.153-4.284V87.607z M30.798,52.461
			c2.009-0.451,3.51-2.203,3.51-4.304v-3.204c0-1.473-0.786-2.818-2.042-3.63c-5.248-3.388-8.829-10.164-8.829-17.973
			c0-1.988,0.242-3.904,0.675-5.719c2.862,1.364,6.029,2.083,9.248,2.083c7.698,0,14.672-4.059,18.321-10.482
			c2.877,3.652,4.656,8.626,4.656,14.119c0,7.855-3.625,14.664-8.924,18.031c-1.267,0.805-2.062,2.154-2.062,3.632v3.144
			c0,1.842,1.152,3.42,2.79,4.085l-8.83,7.996L30.798,52.461z M76.271,87.607H65.522V76.816c0-0.85-0.688-1.536-1.536-1.536
			s-1.536,0.687-1.536,1.536v10.791H40.951V64.729l10.153,4.284c0.477,0.2,1.02,0.15,1.445-0.135
			c0.429-0.283,0.687-0.765,0.687-1.279V52.613c12.831,0.63,23.035,11.008,23.035,23.718V87.607z M56.308,79.889h-9.214
			c-0.849,0-1.535,0.688-1.535,1.536c0,0.85,0.687,1.536,1.535,1.536h9.214c0.85,0,1.536-0.687,1.536-1.536
			C57.844,80.576,57.157,79.889,56.308,79.889z"/>
	</g>
</g>
<g>
</g>
<g>
</g>
<g>
</g>
<g>
</g>
<g>
</g>
<g>
</g>
<g>
</g>
<g>
</g>
<g>
</g>
<g>
</g>
<g>
</g>
<g>
</g>
<g>
</g>
<g>
</g>
<g>
</g>
</svg>
