<?xml version="1.0" encoding="iso-8859-1"?>
<!-- Generator: Adobe Illustrator 16.0.4, SVG Export Plug-In . SVG Version: 6.00 Build 0)  -->
<!DOCTYPE svg PUBLIC "-//W3C//DTD SVG 1.1//EN" "http://www.w3.org/Graphics/SVG/1.1/DTD/svg11.dtd">
<svg version="1.1" id="Capa_1" xmlns="http://www.w3.org/2000/svg" xmlns:xlink="http://www.w3.org/1999/xlink" x="0px" y="0px"
	 width="89.07px" height="70.465px" viewBox="0 0 89.07 70.465" style="enable-background:new 0 0 89.07 70.465;"
	 xml:space="preserve">
<g id="_x37_">
	<g>
		<path d="M87.534,33.597h-3.761v-6.028c0-3.59-1.645-6.867-4.512-8.994c-0.162-0.122-0.225-0.321-0.162-0.509
			c0.243-0.714,0.366-1.457,0.366-2.205c0-2.033-0.876-3.938-2.382-5.245V3.769c0-0.164-0.032-0.319-0.08-0.468h0.692V1.749
			C77.696,0.783,76.741,0,75.563,0h-6.035c-1.178,0-2.132,0.783-2.132,1.749v1.552h0.772c-0.048,0.148-0.08,0.304-0.08,0.468v6.791
			c-1.554,1.31-2.459,3.234-2.459,5.301c0,0.757,0.114,1.494,0.339,2.194c0.06,0.183-0.006,0.378-0.168,0.495
			c-2.877,2.109-4.592,5.48-4.592,9.019v6.028h-5.621v-6.028c0-3.59-1.644-6.867-4.511-8.994c-0.162-0.122-0.226-0.321-0.162-0.509
			c0.243-0.714,0.365-1.457,0.365-2.205c0-2.033-0.876-3.938-2.381-5.245V3.769c0-0.164-0.032-0.319-0.08-0.468h0.692V1.749
			C49.512,0.783,48.557,0,47.379,0h-6.035c-1.178,0-2.132,0.783-2.132,1.749v1.552h0.772c-0.048,0.148-0.08,0.304-0.08,0.468v6.791
			c-1.554,1.312-2.46,3.237-2.46,5.301c0,0.757,0.114,1.494,0.339,2.194c0.061,0.185-0.006,0.38-0.162,0.495
			c-2.879,2.107-4.598,5.48-4.598,9.019v6.028h-5.621V27.66c0-3.536-1.686-6.899-4.508-8.993c-0.165-0.123-0.228-0.324-0.165-0.511
			c0.243-0.714,0.366-1.456,0.366-2.203c0-2.037-0.876-3.942-2.382-5.246V3.861c0-0.165-0.032-0.32-0.08-0.469h0.693V1.842
			c0-0.966-0.955-1.749-2.133-1.749h-6.035c-1.178,0-2.133,0.783-2.133,1.749v1.551h0.772c-0.048,0.148-0.08,0.304-0.08,0.469v6.79
			c-1.554,1.312-2.46,3.237-2.46,5.302c0,0.764,0.117,1.503,0.34,2.187c0.06,0.188-0.007,0.385-0.165,0.502
			c-2.877,2.108-4.596,5.481-4.596,9.019v5.937H1.536C0.688,33.597,0,34.283,0,35.133v33.796c0,0.85,0.688,1.536,1.536,1.536h85.998
			c0.849,0,1.536-0.687,1.536-1.536V35.133C89.07,34.283,88.383,33.597,87.534,33.597z M64.28,27.568
			c0-2.563,1.247-5.009,3.338-6.54c1.227-0.902,1.739-2.478,1.271-3.916c-0.126-0.393-0.188-0.814-0.188-1.252
			c0-1.314,0.656-2.526,1.761-3.242c0.435-0.283,0.698-0.769,0.698-1.289V5.305h2.853v6.065c0,0.512,0.255,0.99,0.681,1.275
			c1.065,0.715,1.701,1.917,1.701,3.215c0,0.41-0.069,0.818-0.204,1.216c-0.492,1.452,0.006,3.046,1.241,3.964
			c2.079,1.542,3.27,3.922,3.27,6.528v6.028H64.28V27.568z M36.095,27.568c0-2.563,1.248-5.009,3.345-6.543
			c1.224-0.902,1.73-2.476,1.266-3.913c-0.126-0.393-0.189-0.814-0.189-1.252c0-1.313,0.66-2.525,1.761-3.244
			c0.436-0.283,0.699-0.768,0.699-1.287V5.305h2.853v6.065c0,0.512,0.255,0.99,0.681,1.275c1.064,0.715,1.7,1.917,1.7,3.215
			c0,0.41-0.068,0.818-0.203,1.216c-0.492,1.452,0.005,3.046,1.241,3.964c2.078,1.542,3.27,3.922,3.27,6.528v6.028H36.095V27.568z
			 M7.91,27.66c0-2.562,1.247-5.008,3.341-6.542c1.224-0.897,1.733-2.47,1.271-3.923c-0.129-0.386-0.192-0.805-0.192-1.242
			c0-1.312,0.66-2.526,1.762-3.245c0.435-0.283,0.698-0.768,0.698-1.287V5.397h2.853v6.065c0,0.513,0.255,0.992,0.681,1.276
			c1.065,0.713,1.701,1.915,1.701,3.214c0,0.409-0.069,0.817-0.204,1.215c-0.492,1.454,0.009,3.047,1.244,3.965
			c2.076,1.542,3.267,3.92,3.267,6.527v5.937H7.91V27.66z M85.998,67.393H3.071V36.669h52.504c0.004,0.004,0.009,0.008,0.013,0.013
			v-0.013h30.41V67.393z M51.506,42.271H39.865c-2.241,0-4.062,1.823-4.062,4.062v2.91c0,2.24,1.82,4.062,4.062,4.062h11.641
			c2.24,0,4.061-1.822,4.061-4.062v-2.91C55.566,44.094,53.746,42.271,51.506,42.271z M52.495,49.243c0,0.546-0.443,0.99-0.989,0.99
			H39.865c-0.546,0-0.99-0.444-0.99-0.99v-2.91c0-0.546,0.444-0.99,0.99-0.99h11.641c0.546,0,0.989,0.444,0.989,0.99V49.243z"/>
	</g>
</g>
<g>
</g>
<g>
</g>
<g>
</g>
<g>
</g>
<g>
</g>
<g>
</g>
<g>
</g>
<g>
</g>
<g>
</g>
<g>
</g>
<g>
</g>
<g>
</g>
<g>
</g>
<g>
</g>
<g>
</g>
</svg>
