<?xml version="1.0" encoding="iso-8859-1"?>
<!-- Generator: Adobe Illustrator 16.0.4, SVG Export Plug-In . SVG Version: 6.00 Build 0)  -->
<!DOCTYPE svg PUBLIC "-//W3C//DTD SVG 1.1//EN" "http://www.w3.org/Graphics/SVG/1.1/DTD/svg11.dtd">
<svg version="1.1" id="Capa_1" xmlns="http://www.w3.org/2000/svg" xmlns:xlink="http://www.w3.org/1999/xlink" x="0px" y="0px"
	 width="90.236px" height="76.462px" viewBox="0 0 90.236 76.462" style="enable-background:new 0 0 90.236 76.462;"
	 xml:space="preserve">
<g id="_x31_1">
	<g>
		<path d="M78.316,50.052c6.676-0.618,11.92-6.245,11.92-13.082v-4.782c0-5.003-4.07-9.073-9.069-9.073h-2.652v-5.401
			c0-0.402-0.157-0.764-0.409-1.038c1.134-1.158,1.802-2.773,1.692-4.545c-0.183-2.96-2.583-5.373-5.541-5.57
			c-0.137-0.009-0.272-0.014-0.407-0.014c-0.582,0-1.146,0.084-1.678,0.24c-0.107,0.031-0.217,0.047-0.323,0.047
			c-0.418,0-0.811-0.23-1.023-0.613c-1.16-2.089-3.388-3.502-5.944-3.502c-1.39,0-2.681,0.418-3.756,1.134
			c-0.193,0.128-0.41,0.189-0.625,0.189c-0.356,0-0.704-0.17-0.922-0.487C58.109,1.408,55.581,0,52.785,0
			c-4.505,0-8.216,3.653-8.216,8.159v0.038c0.202,0.424-0.234,0.737-0.664,0.737c-0.079,0-0.157-0.011-0.232-0.033
			C43.237,8.771,42.794,8.7,42.323,8.7c-0.125,0-0.252,0.006-0.381,0.016c-1.996,0.156-3.694,1.486-4.243,3.412
			c-0.741,2.606,0.652,5.012,2.823,5.897V48.1c0,3.718,2.111,6.948,5.194,8.565h-11.41c1.568-1.709,2.55-3.967,2.55-6.465V24.47
			c0-0.85-0.687-1.601-1.535-1.601H23.035C10.333,22.869,0,33.27,0,45.976V50.2c0,5.295,4.308,9.537,9.599,9.537h76.399
			c0.85,0,1.536-0.687,1.536-1.536c0-0.849-0.687-1.536-1.536-1.536H73.32C75.849,55.338,77.725,52.929,78.316,50.052z
			 M78.515,26.188h2.652c3.308,0,5.998,2.69,5.998,6v4.782c0,5.072-3.768,9.279-8.65,9.972V26.188z M33.785,50.2
			c0,3.385-2.595,6.142-5.895,6.465H9.599c-3.6,0-6.527-2.864-6.527-6.465v-4.225c0-0.54,0.039-1.07,0.081-1.6h30.633V50.2z
			 M33.785,41.304H3.645c2.11-8.776,9.992-15.362,19.391-15.362h10.75V41.304z M40.867,14.523c-0.21-0.312-0.418-0.836-0.214-1.554
			c0.189-0.665,0.79-1.133,1.67-1.197c0.158,0,0.304,0.022,0.47,0.072c0.358,0.107,0.732,0.162,1.112,0.162
			c1.326,0,2.57-0.667,3.247-1.74c0.457-0.725,0.626-1.574,0.497-2.4c0.153-2.669,2.398-4.793,5.136-4.793
			c1.69,0,3.322,0.85,4.259,2.217c0.782,1.143,2.074,1.824,3.456,1.824c0.829,0,1.633-0.243,2.325-0.704
			c0.609-0.405,1.32-0.619,2.056-0.619c1.352,0,2.601,0.736,3.26,1.922c0.751,1.353,2.172,2.193,3.708,2.193
			c0.401,0,0.801-0.058,1.188-0.171c0.262-0.077,0.536-0.116,0.813-0.116l0.204,0.007c1.415,0.095,2.592,1.277,2.679,2.694
			c0.051,0.811-0.226,1.58-0.777,2.167s-1.3,0.911-2.101,0.911c-0.293-0.001-29.112-0.102-31.828-0.111
			C41.557,15.202,41.139,14.929,40.867,14.523z M75.443,48.1c0,3.64-2.957,6.599-6.596,6.599H50.188
			c-3.638,0-6.595-2.959-6.595-6.599V19.25h31.85V48.1z M50.678,48.554c0.849,0,1.536-0.687,1.536-1.536V28.583
			c0-0.849-0.688-1.536-1.536-1.536s-1.535,0.688-1.535,1.536v18.435C49.143,47.867,49.829,48.554,50.678,48.554z M56.82,48.554
			c0.849,0,1.536-0.687,1.536-1.536V28.583c0-0.849-0.688-1.536-1.536-1.536s-1.535,0.688-1.535,1.536v18.435
			C55.285,47.867,55.972,48.554,56.82,48.554z M62.963,48.554c0.85,0,1.536-0.687,1.536-1.536V28.583
			c0-0.849-0.687-1.536-1.536-1.536c-0.849,0-1.535,0.688-1.535,1.536v18.435C61.428,47.867,62.114,48.554,62.963,48.554z
			 M69.105,48.554c0.85,0,1.536-0.687,1.536-1.536V28.583c0-0.849-0.687-1.536-1.536-1.536c-0.849,0-1.535,0.688-1.535,1.536v18.435
			C67.57,47.867,68.257,48.554,69.105,48.554z M20.732,62.123c-3.95,0-7.166,3.217-7.166,7.169c0,3.953,3.216,7.17,7.166,7.17
			c3.949,0,7.165-3.217,7.165-7.17C27.897,65.34,24.682,62.123,20.732,62.123z M20.732,73.39c-2.259,0-4.095-1.838-4.095-4.098
			c0-2.259,1.836-4.097,4.095-4.097c2.258,0,4.094,1.838,4.094,4.097C24.826,71.552,22.99,73.39,20.732,73.39z M69.874,62.123
			c-3.95,0-7.166,3.217-7.166,7.169c0,3.953,3.216,7.17,7.166,7.17s7.165-3.217,7.165-7.17
			C77.039,65.34,73.824,62.123,69.874,62.123z M69.874,73.39c-2.259,0-4.095-1.838-4.095-4.098c0-2.259,1.836-4.097,4.095-4.097
			s4.094,1.838,4.094,4.097C73.968,71.552,72.133,73.39,69.874,73.39z"/>
	</g>
</g>
<g>
</g>
<g>
</g>
<g>
</g>
<g>
</g>
<g>
</g>
<g>
</g>
<g>
</g>
<g>
</g>
<g>
</g>
<g>
</g>
<g>
</g>
<g>
</g>
<g>
</g>
<g>
</g>
<g>
</g>
</svg>
