<?xml version="1.0" encoding="iso-8859-1"?>
<!-- Generator: Adobe Illustrator 16.0.4, SVG Export Plug-In . SVG Version: 6.00 Build 0)  -->
<!DOCTYPE svg PUBLIC "-//W3C//DTD SVG 1.1//EN" "http://www.w3.org/Graphics/SVG/1.1/DTD/svg11.dtd">
<svg version="1.1" id="Capa_1" xmlns="http://www.w3.org/2000/svg" xmlns:xlink="http://www.w3.org/1999/xlink" x="0px" y="0px"
	 width="79.804px" height="86.832px" viewBox="0 0 79.804 86.832" style="enable-background:new 0 0 79.804 86.832;"
	 xml:space="preserve">
<g id="_x35_">
	<g>
		<path d="M66.896,35.754h-5.021V25.753c1.883-1.784,3.009-4.359,2.834-7.196c-0.279-4.528-3.951-8.22-8.477-8.521
			c-0.209-0.014-0.416-0.021-0.622-0.021c-0.892,0-1.753,0.128-2.567,0.366c-0.165,0.049-0.331,0.071-0.495,0.071
			c-0.639,0-1.24-0.353-1.565-0.938c-1.774-3.194-5.182-5.355-9.094-5.355c-2.125,0-4.1,0.639-5.746,1.733
			c-0.295,0.196-0.627,0.291-0.955,0.291c-0.545,0-1.078-0.261-1.41-0.746C31.529,2.154,27.663,0,23.385,0
			c-6.891,0-12.567,5.588-12.567,12.48v0.059c0.309,0.649-0.357,1.128-1.016,1.128c-0.121,0-0.241-0.017-0.355-0.05
			c-0.667-0.2-1.345-0.308-2.064-0.308c-0.191,0-0.386,0.007-0.584,0.022c-3.052,0.24-5.651,2.274-6.49,5.221
			c-1.252,4.399,1.469,8.432,5.382,9.369v45.083c0,7.637,6.189,13.827,13.823,13.827h28.539c6.932,0,12.656-5.11,13.653-11.766
			c10.067-0.542,18.099-8.881,18.099-19.083v-7.318C79.804,41.546,74.013,35.754,66.896,35.754z M59.112,73.005
			c0,6.11-4.952,11.063-11.061,11.063h-28.54c-6.108,0-11.06-4.952-11.06-11.062V28.091c2.178,0.007,6.094,0.021,10.781,0.038v5.434
			c0,2.595,2.102,4.697,4.695,4.697h0.854c2.594,0,4.696-2.103,4.696-4.697v-5.407c11.665,0.041,25.89,0.085,29.634,0.097V73.005z
			 M60.242,23.489c-1.215,1.292-2.859,2.004-4.631,2.004l-2.099-0.008l-24.024-0.093h-0.01c-0.73,0-1.432,0.29-1.949,0.806
			c-0.52,0.519-0.812,1.223-0.812,1.957v5.407c0,1.067-0.867,1.936-1.935,1.936h-0.854c-1.067,0-1.935-0.868-1.935-1.936v-5.434
			c0-1.521-1.23-2.757-2.752-2.762l-12.47-0.044c-1.312-0.182-2.482-0.914-3.228-2.024c-0.778-1.158-0.984-2.575-0.582-3.989
			c0.514-1.806,2.104-3.071,4.051-3.224c0.124-0.01,0.246-0.015,0.367-0.015c0.426,0,0.843,0.062,1.273,0.191
			c0.368,0.11,0.754,0.166,1.146,0.166c1.369,0,2.645-0.674,3.328-1.758c0.476-0.753,0.63-1.646,0.453-2.506
			c0.169-5.213,4.501-9.403,9.802-9.403c3.266,0,6.299,1.583,8.114,4.235c0.835,1.22,2.214,1.948,3.688,1.948
			c0.885,0,1.744-0.261,2.484-0.753c1.251-0.832,2.709-1.271,4.217-1.271c2.771,0,5.331,1.508,6.68,3.936
			c0.809,1.455,2.333,2.359,3.979,2.359c0.43,0,0.857-0.062,1.271-0.184c0.578-0.169,1.181-0.255,1.791-0.255
			c0.146,0,0.292,0.005,0.439,0.015c3.118,0.207,5.711,2.814,5.903,5.935C62.063,20.507,61.455,22.198,60.242,23.489z
			 M77.041,55.982c0,8.624-6.701,15.712-15.166,16.329V38.517h5.021c5.594,0,10.145,4.552,10.145,10.147V55.982z M19.938,40.9
			c-0.849,0-1.535,0.688-1.535,1.536v30.725c0,0.849,0.687,1.535,1.535,1.535c0.85,0,1.536-0.687,1.536-1.535V42.437
			C21.474,41.588,20.787,40.9,19.938,40.9z M27.616,42.437v30.725c0,0.849,0.687,1.535,1.536,1.535c0.849,0,1.535-0.687,1.535-1.535
			V42.437c0-0.849-0.687-1.536-1.535-1.536C28.303,40.9,27.616,41.588,27.616,42.437z M38.366,74.696
			c0.849,0,1.535-0.687,1.535-1.535V42.437c0-0.849-0.687-1.536-1.535-1.536s-1.536,0.688-1.536,1.536v30.725
			C36.83,74.01,37.518,74.696,38.366,74.696z M47.58,74.696c0.849,0,1.536-0.687,1.536-1.535V42.437
			c0-0.849-0.688-1.536-1.536-1.536s-1.535,0.688-1.535,1.536v30.725C46.045,74.01,46.731,74.696,47.58,74.696z"/>
	</g>
</g>
<g>
</g>
<g>
</g>
<g>
</g>
<g>
</g>
<g>
</g>
<g>
</g>
<g>
</g>
<g>
</g>
<g>
</g>
<g>
</g>
<g>
</g>
<g>
</g>
<g>
</g>
<g>
</g>
<g>
</g>
</svg>
