<?xml version="1.0" encoding="iso-8859-1"?>
<!-- Generator: Adobe Illustrator 16.0.4, SVG Export Plug-In . SVG Version: 6.00 Build 0)  -->
<!DOCTYPE svg PUBLIC "-//W3C//DTD SVG 1.1//EN" "http://www.w3.org/Graphics/SVG/1.1/DTD/svg11.dtd">
<svg version="1.1" id="Capa_1" xmlns="http://www.w3.org/2000/svg" xmlns:xlink="http://www.w3.org/1999/xlink" x="0px" y="0px"
	 width="60.427px" height="79.882px" viewBox="0 0 60.427 79.882" style="enable-background:new 0 0 60.427 79.882;"
	 xml:space="preserve">
<g id="_x32_4">
	<g>
		<path d="M57.796,14.78c-2.087-2.745-5.116-4.516-8.533-4.98L46.06,9.363C45.932,4.182,41.685,0,36.474,0h-17.66
			c-5.161,0-9.375,4.104-9.579,9.218H1.537c-0.441,0-0.861,0.188-1.152,0.519c-0.29,0.33-0.426,0.771-0.371,1.209l6.099,48.809
			L0.079,77.859c-0.156,0.469-0.078,0.984,0.213,1.384c0.288,0.401,0.75,0.639,1.245,0.639h42.999c0.018-0.003,0.042-0.003,0.06,0
			c0.85,0,1.536-0.687,1.536-1.536c0-0.321-0.096-0.618-0.264-0.864l-5.907-17.726l1.457-11.665
			c9.055-0.494,16.662-7.414,17.902-16.506l0.986-7.249C60.771,20.919,59.881,17.525,57.796,14.78z M18.813,3.073h17.66
			c3.471,0,6.316,2.724,6.515,6.145H12.299C12.497,5.797,15.343,3.073,18.813,3.073z M42.406,76.81H3.667l5.119-15.362h28.5
			L42.406,76.81z M37.037,58.375H9.035L3.276,12.29h39.521L37.037,58.375z M57.571,23.965l-0.986,7.248
			c-1.038,7.612-7.293,13.44-14.817,14.084l4.144-33.167l2.98,0.406c2.684,0.366,5.065,1.758,6.706,3.915
			C57.235,18.608,57.938,21.276,57.571,23.965z M36.183,15.459c-0.084-0.136-0.18-0.253-0.32-0.418
			c-0.469-0.675-1.386-0.861-2.082-0.417L17.8,24.753c-0.645,0.409-0.801,1.414-0.489,2.109c0.03,0.066,0.183,0.366,0.222,0.43
			c2.04,3.216,5.528,5.137,9.337,5.137c2.091,0,4.131-0.595,5.903-1.72C37.916,27.451,39.449,20.609,36.183,15.459z M24.721,29
			c-1.521-0.418-2.922-1.259-3.952-2.491l4.428-2.807L24.721,29z M31.129,28.114c-1.026,0.65-2.176,1.025-3.348,1.146l0.563-6.271
			l4.64,3.486C32.466,27.1,31.85,27.658,31.129,28.114z M34.466,23.747l-4.273-3.212l3.915-2.481
			C34.948,19.883,35.035,21.911,34.466,23.747z M18.43,67.593h-6.143c-0.85,0-1.536,0.687-1.536,1.536
			c0,0.849,0.687,1.536,1.536,1.536h6.143c0.849,0,1.535-0.688,1.535-1.536C19.965,68.279,19.278,67.593,18.43,67.593z
			 M21.63,34.498c-5.894,0-10.687,4.795-10.687,10.69c0,5.896,4.793,10.69,10.687,10.69s10.687-4.794,10.687-10.69
			C32.316,39.293,27.523,34.498,21.63,34.498z M21.63,52.807c-4.199,0-7.615-3.417-7.615-7.618c0-4.2,3.416-7.617,7.615-7.617
			s7.615,3.417,7.615,7.617C29.245,49.39,25.829,52.807,21.63,52.807z M20.749,45.582c-1.064,0-1.928,0.863-1.928,1.929
			c0,1.064,0.863,1.928,1.928,1.928s1.928-0.863,1.928-1.928C22.677,46.445,21.813,45.582,20.749,45.582z"/>
	</g>
</g>
<g>
</g>
<g>
</g>
<g>
</g>
<g>
</g>
<g>
</g>
<g>
</g>
<g>
</g>
<g>
</g>
<g>
</g>
<g>
</g>
<g>
</g>
<g>
</g>
<g>
</g>
<g>
</g>
<g>
</g>
</svg>
