<?xml version="1.0" encoding="iso-8859-1"?>
<!-- Generator: Adobe Illustrator 16.0.4, SVG Export Plug-In . SVG Version: 6.00 Build 0)  -->
<!DOCTYPE svg PUBLIC "-//W3C//DTD SVG 1.1//EN" "http://www.w3.org/Graphics/SVG/1.1/DTD/svg11.dtd">
<svg version="1.1" id="Capa_1" xmlns="http://www.w3.org/2000/svg" xmlns:xlink="http://www.w3.org/1999/xlink" x="0px" y="0px"
	 width="55.75px" height="84.49px" viewBox="0 0 55.75 84.49" style="enable-background:new 0 0 55.75 84.49;" xml:space="preserve"
	>
<g id="_x31_8">
	<g>
		<path d="M36.311,27.891c-1.123-0.351-1.877-1.386-1.877-2.58V9.217h4.191c0.849,0,1.535-0.687,1.535-1.536V1.536
			C40.16,0.687,39.474,0,38.625,0h-21.5c-0.849,0-1.535,0.687-1.535,1.536v6.145c0,0.85,0.687,1.536,1.535,1.536h3.946V25.35
			c0,1.188-0.75,2.224-1.863,2.577C7.719,31.566,0,42.148,0,54.261v23.712c0,3.595,2.923,6.518,6.515,6.518h42.721
			c3.591,0,6.515-2.923,6.515-6.518V54.261C55.75,42.112,47.937,31.516,36.311,27.891z M18.661,6.145V3.072h18.428v3.072H18.661z
			 M52.679,77.973c0,1.899-1.545,3.444-3.443,3.444H6.515c-1.898,0-3.443-1.545-3.443-3.444V54.261
			c0-10.765,6.858-20.171,17.065-23.405c2.396-0.762,4.006-2.974,4.006-5.506V9.217h7.219v16.094c0,2.545,1.62,4.759,4.034,5.515
			c10.338,3.22,17.283,12.638,17.283,23.436V77.973z M10.982,52.229c-0.849,0-1.536,0.688-1.536,1.536v15.362
			c0,0.85,0.688,1.536,1.536,1.536h33.785c0.849,0,1.535-0.687,1.535-1.536V53.766c0-0.849-0.687-1.536-1.535-1.536H10.982z
			 M43.231,67.592H12.519V55.303h30.713V67.592z M16.357,46.085H40.16c0.484,0,0.941-0.228,1.231-0.618
			c0.289-0.39,0.379-0.891,0.24-1.355c-1.814-6.088-6.44-9.308-13.373-9.308s-11.559,3.22-13.373,9.308
			c-0.139,0.465-0.049,0.966,0.24,1.355C15.416,45.857,15.873,46.085,16.357,46.085z M28.259,37.876
			c4.759,0,7.938,1.687,9.659,5.137H18.6C20.321,39.562,23.5,37.876,28.259,37.876z"/>
	</g>
</g>
<g>
</g>
<g>
</g>
<g>
</g>
<g>
</g>
<g>
</g>
<g>
</g>
<g>
</g>
<g>
</g>
<g>
</g>
<g>
</g>
<g>
</g>
<g>
</g>
<g>
</g>
<g>
</g>
<g>
</g>
</svg>
