<?xml version="1.0" encoding="iso-8859-1"?>
<!-- Generator: Adobe Illustrator 16.0.4, SVG Export Plug-In . SVG Version: 6.00 Build 0)  -->
<!DOCTYPE svg PUBLIC "-//W3C//DTD SVG 1.1//EN" "http://www.w3.org/Graphics/SVG/1.1/DTD/svg11.dtd">
<svg version="1.1" id="Capa_1" xmlns="http://www.w3.org/2000/svg" xmlns:xlink="http://www.w3.org/1999/xlink" x="0px" y="0px"
	 width="30.714px" height="76.81px" viewBox="0 0 30.714 76.81" style="enable-background:new 0 0 30.714 76.81;"
	 xml:space="preserve">
<g id="_x39_">
	<g>
		<path d="M15.219,0C6.827,0,0,6.829,0,15.225v7.818c0,0.85,0.687,1.536,1.536,1.536h1.919c3.175,0,5.759,2.585,5.759,5.761v6.529
			H7.679c-0.85,0-1.536,0.687-1.536,1.536v29.264c0,5.04,4.099,9.141,9.138,9.141h0.153c5.038,0,9.138-4.101,9.138-9.141V38.405
			c0-0.85-0.688-1.536-1.536-1.536H21.5V30.34c0-3.176,2.583-5.761,5.759-5.761h1.919c0.849,0,1.536-0.687,1.536-1.536v-7.818
			C30.714,6.829,23.887,0,15.219,0z M21.5,67.669c0,3.346-2.723,6.068-6.066,6.068H15.28c-3.345,0-6.066-2.723-6.066-6.068V46.086
			H21.5V67.669z M21.5,43.014H9.214v-3.072H21.5V43.014z M27.643,21.507h-0.384c-4.87,0-8.831,3.962-8.831,8.833v6.529h-6.143V30.34
			c0-4.871-3.961-8.833-8.83-8.833H3.071v-6.282c0-6.7,5.45-12.152,12.424-12.152c6.697,0,12.147,5.452,12.147,12.152V21.507z
			 M15.165,6.913c-5.257,0-9.534,4.278-9.534,9.537c0,0.16,0.017,0.314,0.049,0.54l0.085,1.444h17.354l1.358-0.192l0.185-1.323
			l0.037-0.469C24.698,11.191,20.421,6.913,15.165,6.913z M8.794,15.362c0.519-3.049,3.178-5.377,6.371-5.377
			c3.181,0,5.834,2.312,6.358,5.377H8.794z"/>
	</g>
</g>
<g>
</g>
<g>
</g>
<g>
</g>
<g>
</g>
<g>
</g>
<g>
</g>
<g>
</g>
<g>
</g>
<g>
</g>
<g>
</g>
<g>
</g>
<g>
</g>
<g>
</g>
<g>
</g>
<g>
</g>
</svg>
