<?xml version="1.0" encoding="iso-8859-1"?>
<!-- Generator: Adobe Illustrator 16.0.4, SVG Export Plug-In . SVG Version: 6.00 Build 0)  -->
<!DOCTYPE svg PUBLIC "-//W3C//DTD SVG 1.1//EN" "http://www.w3.org/Graphics/SVG/1.1/DTD/svg11.dtd">
<svg version="1.1" id="Capa_1" xmlns="http://www.w3.org/2000/svg" xmlns:xlink="http://www.w3.org/1999/xlink" x="0px" y="0px"
	 width="70.641px" height="73.737px" viewBox="0 0 70.641 73.737" style="enable-background:new 0 0 70.641 73.737;"
	 xml:space="preserve">
<g id="_x32_7">
	<g>
		<path d="M44.534,12.29H21.499v-1.536c0-0.85-0.687-1.536-1.535-1.536h-4.607V1.536C15.356,0.688,14.67,0,13.82,0H7.678
			C6.829,0,6.143,0.688,6.143,1.536V12.29H1.535C0.687,12.29,0,12.977,0,13.826v51.462c0,4.659,3.788,8.449,8.446,8.449h29.178
			c4.658,0,8.446-3.79,8.446-8.449V13.826C46.07,12.977,45.383,12.29,44.534,12.29z M33.784,15.362h3.072v6.145h-3.072V15.362z
			 M27.642,15.362h3.071v6.145h-3.071V15.362z M21.499,15.362h3.071v6.145h-3.071V15.362z M15.356,12.29h3.071v9.217h-3.071V12.29z
			 M9.214,3.073h3.071v12.289H9.214V3.073z M9.214,18.435h3.071v3.072H9.214V18.435z M42.999,65.288
			c0,2.964-2.412,5.377-5.375,5.377H8.446c-2.964,0-5.375-2.413-5.375-5.377V15.362h3.071v7.681c0,0.85,0.687,1.536,1.535,1.536
			h30.714c0.849,0,1.536-0.687,1.536-1.536v-7.681h3.071V65.288z M36.856,46.086H9.214c-0.849,0-1.536,0.687-1.536,1.536
			s0.688,1.536,1.536,1.536h27.643c0.849,0,1.535-0.687,1.535-1.536S37.705,46.086,36.856,46.086z M36.856,39.941H9.214
			c-0.849,0-1.536,0.687-1.536,1.536c0,0.849,0.688,1.536,1.536,1.536h27.643c0.849,0,1.535-0.688,1.535-1.536
			C38.392,40.628,37.705,39.941,36.856,39.941z M36.856,52.23H9.214c-0.849,0-1.536,0.687-1.536,1.536s0.688,1.536,1.536,1.536
			h27.643c0.849,0,1.535-0.687,1.535-1.536S37.705,52.23,36.856,52.23z M69.105,46.086H53.748c-0.849,0-1.535,0.687-1.535,1.536
			v24.579c0,0.849,0.687,1.536,1.535,1.536h15.357c0.849,0,1.535-0.688,1.535-1.536V47.622
			C70.641,46.772,69.954,46.086,69.105,46.086z M67.569,70.665H55.284V55.303h12.285V70.665z M67.569,52.23H55.284v-3.072h12.285
			V52.23z M61.682,45.294c4.095,0,7.424-3.33,7.424-7.426c0-3.619-5.195-10.147-6.236-11.42l-1.188-1.452l-1.188,1.452
			c-1.041,1.272-6.232,7.801-6.232,11.42C54.262,41.964,57.591,45.294,61.682,45.294z M61.682,29.914
			c2.088,2.784,4.353,6.394,4.353,7.954c0,2.4-1.953,4.354-4.353,4.354s-4.349-1.953-4.349-4.354
			C57.333,36.311,59.598,32.701,61.682,29.914z"/>
	</g>
</g>
<g>
</g>
<g>
</g>
<g>
</g>
<g>
</g>
<g>
</g>
<g>
</g>
<g>
</g>
<g>
</g>
<g>
</g>
<g>
</g>
<g>
</g>
<g>
</g>
<g>
</g>
<g>
</g>
<g>
</g>
</svg>
