<?xml version="1.0" encoding="iso-8859-1"?>
<!-- Generator: Adobe Illustrator 16.0.4, SVG Export Plug-In . SVG Version: 6.00 Build 0)  -->
<!DOCTYPE svg PUBLIC "-//W3C//DTD SVG 1.1//EN" "http://www.w3.org/Graphics/SVG/1.1/DTD/svg11.dtd">
<svg version="1.1" id="Capa_1" xmlns="http://www.w3.org/2000/svg" xmlns:xlink="http://www.w3.org/1999/xlink" x="0px" y="0px"
	 width="74.097px" height="79.752px" viewBox="0 0 74.097 79.752" style="enable-background:new 0 0 74.097 79.752;"
	 xml:space="preserve">
<g id="_x31_9">
	<g>
		<path d="M50.995,40.514l22.651-22.659c0.438-0.438,0.57-1.101,0.333-1.674c-0.236-0.573-0.798-0.948-1.419-0.948H32.826
			C32.2,6.729,25.103,0,16.445,0C7.378,0,0,7.378,0,16.448c0,9.069,7.378,16.45,16.445,16.45c3.053,0,5.981-0.826,8.55-2.396
			l10.008,10.011c1.769,1.769,4.023,2.867,6.461,3.197V76.68H29.178c-0.849,0-1.535,0.688-1.535,1.536
			c0,0.85,0.687,1.536,1.535,1.536H56.82c0.849,0,1.535-0.687,1.535-1.536c0-0.849-0.687-1.536-1.535-1.536H44.535V43.711
			C46.972,43.381,49.227,42.282,50.995,40.514z M59.64,27.522H26.358l-9.214-9.218h51.709L59.64,27.522z M16.445,29.826
			c-7.375,0-13.374-6-13.374-13.378c0-7.375,5.999-13.376,13.374-13.376c6.963,0,12.692,5.354,13.31,12.16H13.438
			c-0.621,0-1.183,0.375-1.419,0.948c-0.237,0.573-0.105,1.236,0.333,1.674l10.39,10.393C20.815,29.279,18.673,29.826,16.445,29.826
			z M29.43,30.595h27.139l-7.744,7.747c-3.114,3.108-8.536,3.108-11.65,0L29.43,30.595z"/>
	</g>
</g>
<g>
</g>
<g>
</g>
<g>
</g>
<g>
</g>
<g>
</g>
<g>
</g>
<g>
</g>
<g>
</g>
<g>
</g>
<g>
</g>
<g>
</g>
<g>
</g>
<g>
</g>
<g>
</g>
<g>
</g>
</svg>
