<?xml version="1.0" encoding="iso-8859-1"?>
<!-- Generator: Adobe Illustrator 16.0.4, SVG Export Plug-In . SVG Version: 6.00 Build 0)  -->
<!DOCTYPE svg PUBLIC "-//W3C//DTD SVG 1.1//EN" "http://www.w3.org/Graphics/SVG/1.1/DTD/svg11.dtd">
<svg version="1.1" id="Capa_1" xmlns="http://www.w3.org/2000/svg" xmlns:xlink="http://www.w3.org/1999/xlink" x="0px" y="0px"
	 width="63.313px" height="73.203px" viewBox="0 0 63.313 73.203" style="enable-background:new 0 0 63.313 73.203;"
	 xml:space="preserve">
<g id="_x31_5">
	<g>
		<path d="M63.202,44.662L50.884,13.906c-0.219-0.55-0.737-0.924-1.328-0.961c-0.642-0.027-1.151,0.271-1.439,0.789l-5.705,10.311
			h-2.376l-0.498-8.148c-0.054-0.847-0.776-1.484-1.625-1.451l-8.81,0.522l3.74-4.045c0.576-0.622,0.537-1.595-0.084-2.171
			L23.74,0.408c-0.627-0.577-1.596-0.536-2.172,0.086l-8.342,9.021c-0.575,0.622-0.536,1.595,0.085,2.171l2.519,2.331l-9.934,2.665
			c-0.393,0.105-0.729,0.363-0.93,0.716c-0.204,0.354-0.261,0.772-0.153,1.167l1.471,5.48H1.535C0.687,24.045,0,24.731,0,25.581
			v32.26c0,8.47,6.89,15.362,15.356,15.362h18.429c8.467,0,15.356-6.893,15.356-15.362v-32.26c0-0.85-0.687-1.536-1.536-1.536
			h-1.684l3.315-5.992l11.116,27.752c0.239,0.601,0.815,0.965,1.425,0.965c0.191,0,0.384-0.034,0.569-0.109
			C63.137,46.344,63.518,45.449,63.202,44.662z M36.959,24.045h-5.304l0.618-1.832c0.272-0.804-0.159-1.676-0.963-1.945
			l-3.895-1.314l-0.047-0.762l9.196-0.562L36.959,24.045z M22.182,24.045l-1.066-3.975l7.757,2.617l-0.458,1.357H22.182z
			 M22.78,3.707l6.764,6.259l-6.254,6.766l-6.764-6.259L22.78,3.707z M8.176,19.252l8.899-2.389l1.928,7.182h-9.54L8.176,19.252z
			 M33.785,70.13H15.356c-4.536,0-8.495-2.478-10.623-6.145h39.675C42.28,67.652,38.321,70.13,33.785,70.13z M46.07,57.841
			c0,1.062-0.149,2.088-0.404,3.072H3.476c-0.255-0.984-0.404-2.01-0.404-3.072V27.117H46.07V57.841z"/>
	</g>
</g>
<g>
</g>
<g>
</g>
<g>
</g>
<g>
</g>
<g>
</g>
<g>
</g>
<g>
</g>
<g>
</g>
<g>
</g>
<g>
</g>
<g>
</g>
<g>
</g>
<g>
</g>
<g>
</g>
<g>
</g>
</svg>
