<?xml version="1.0" encoding="iso-8859-1"?>
<!-- Generator: Adobe Illustrator 16.0.4, SVG Export Plug-In . SVG Version: 6.00 Build 0)  -->
<!DOCTYPE svg PUBLIC "-//W3C//DTD SVG 1.1//EN" "http://www.w3.org/Graphics/SVG/1.1/DTD/svg11.dtd">
<svg version="1.1" id="Capa_1" xmlns="http://www.w3.org/2000/svg" xmlns:xlink="http://www.w3.org/1999/xlink" x="0px" y="0px"
	 width="60.51px" height="82.87px" viewBox="0 0 60.51 82.87" style="enable-background:new 0 0 60.51 82.87;" xml:space="preserve"
	>
<g id="_x31_6">
	<g>
		<path d="M55.171,56.962h-2.457c-2.942,0-5.339,2.396-5.339,5.342v0.06h-5.488c-1.755,0-3.396-0.501-4.739-1.447
			c-2.022-1.425-4.449-2.142-6.88-2.153c0.028-2.059,0.084-7.224-0.013-9.704c-0.012-0.255-0.039-0.636-0.069-1.017
			c-0.026-0.335-0.054-0.67-0.06-0.887c-0.078-2.324-0.927-3.576-1.607-4.585c-0.601-0.887-1.035-1.527-1.035-2.986
			c0-1.181,0.534-1.733,1.56-2.686c1.071-0.996,2.541-2.361,2.541-4.938c0-2.572-1.47-3.937-2.541-4.933
			c-1.025-0.949-1.56-1.5-1.56-2.678s0.534-1.728,1.56-2.678c1.071-0.996,2.541-2.358,2.541-4.931c0-2.571-1.47-3.936-2.541-4.93
			c-1.025-0.95-1.56-1.5-1.56-2.678c0-1.175,0.534-1.724,1.56-2.674c1.071-0.993,2.541-2.355,2.541-4.925
			c0-0.85-0.688-1.536-1.536-1.536s-1.536,0.687-1.536,1.536c0,1.173-0.533,1.722-1.557,2.672c-1.073,0.993-2.543,2.355-2.543,4.927
			c0,2.572,1.47,3.937,2.54,4.931c1.026,0.95,1.56,1.5,1.56,2.677c0,1.178-0.533,1.729-1.56,2.678
			c-1.07,0.996-2.54,2.358-2.54,4.932c0,2.572,1.47,3.936,2.54,4.932c1.026,0.949,1.56,1.503,1.56,2.68
			c0,1.183-0.533,1.736-1.56,2.689c-1.073,0.996-2.54,2.365-2.54,4.939c0,2.402,0.867,3.689,1.562,4.719
			c0.6,0.885,1.032,1.542,1.08,2.987c0.012,0.253,0.039,0.667,0.069,1.048c0.026,0.335,0.054,0.735,0.06,0.962
			c0.101,2.567,0.028,8.228,0.006,9.831c-1.393,0.349-2.729,0.936-3.923,1.777c-1.344,0.946-2.981,1.447-4.739,1.447h-5.393v-0.06
			c0-2.946-2.396-5.342-5.339-5.342H5.339C2.396,56.962,0,59.357,0,62.304v15.224c0,2.946,2.396,5.343,5.339,5.343h2.457
			c2.879,0,5.22-2.298,5.32-5.156h3.485c2.063,0,4.064,0.762,5.636,2.145c2.205,1.94,5.033,3.009,7.97,3.009s5.765-1.068,7.969-3.01
			c1.572-1.382,3.572-2.144,5.637-2.144h3.581c0.101,2.858,2.441,5.156,5.32,5.156h2.457c2.942,0,5.339-2.396,5.339-5.343V62.304
			C60.51,59.357,58.113,56.962,55.171,56.962z M10.063,77.527c0,1.252-1.018,2.27-2.268,2.27H5.339c-1.251,0-2.268-1.018-2.268-2.27
			V62.304c0-1.251,1.017-2.27,2.268-2.27h2.457c1.25,0,2.268,1.019,2.268,2.27V77.527z M47.375,74.642h-3.562
			c-2.814,0-5.534,1.033-7.664,2.91c-3.287,2.893-8.596,2.891-11.884,0.002c-2.129-1.879-4.85-2.912-7.663-2.912h-3.467v-9.205
			h5.393c2.394,0,4.646-0.695,6.509-2.009c3.035-2.143,7.307-2.143,10.342,0c1.865,1.313,4.118,2.009,6.509,2.009h5.488V74.642z
			 M57.438,77.527c0,1.252-1.018,2.27-2.268,2.27h-2.457c-1.25,0-2.268-1.018-2.268-2.27V62.304c0-1.251,1.018-2.27,2.268-2.27
			h2.457c1.25,0,2.268,1.019,2.268,2.27V77.527z M30.132,64.153c-3.689,0-6.691,3.002-6.691,6.692s3.002,6.694,6.691,6.694
			s6.691-3.004,6.691-6.694S33.821,64.153,30.132,64.153z M30.132,74.467c-1.997,0-3.62-1.624-3.62-3.621
			c0-1.996,1.623-3.62,3.62-3.62c1.998,0,3.62,1.624,3.62,3.62C33.752,72.843,32.13,74.467,30.132,74.467z"/>
	</g>
</g>
<g>
</g>
<g>
</g>
<g>
</g>
<g>
</g>
<g>
</g>
<g>
</g>
<g>
</g>
<g>
</g>
<g>
</g>
<g>
</g>
<g>
</g>
<g>
</g>
<g>
</g>
<g>
</g>
<g>
</g>
</svg>
