<?xml version="1.0" encoding="iso-8859-1"?>
<!-- Generator: Adobe Illustrator 16.0.4, SVG Export Plug-In . SVG Version: 6.00 Build 0)  -->
<!DOCTYPE svg PUBLIC "-//W3C//DTD SVG 1.1//EN" "http://www.w3.org/Graphics/SVG/1.1/DTD/svg11.dtd">
<svg version="1.1" id="Capa_1" xmlns="http://www.w3.org/2000/svg" xmlns:xlink="http://www.w3.org/1999/xlink" x="0px" y="0px"
	 width="30.714px" height="78.346px" viewBox="0 0 30.714 78.346" style="enable-background:new 0 0 30.714 78.346;"
	 xml:space="preserve">
<g id="_x31_4">
	<g>
		<path d="M29.178,75.273H16.893V42.94c6.893-0.709,12.285-6.55,12.285-13.63V1.536C29.178,0.688,28.491,0,27.643,0H3.071
			C2.223,0,1.536,0.688,1.536,1.536v27.774c0,7.08,5.392,12.92,12.285,13.63v32.333H1.536C0.687,75.273,0,75.96,0,76.81
			c0,0.849,0.687,1.536,1.536,1.536h27.642c0.85,0,1.536-0.688,1.536-1.536C30.714,75.96,30.027,75.273,29.178,75.273z M4.607,3.072
			h21.499v23.043H4.607V3.072z M4.607,29.311v-0.123h21.499v0.123c0,5.861-4.768,10.63-10.627,10.63h-0.245
			C9.374,39.94,4.607,35.172,4.607,29.311z"/>
	</g>
</g>
<g>
</g>
<g>
</g>
<g>
</g>
<g>
</g>
<g>
</g>
<g>
</g>
<g>
</g>
<g>
</g>
<g>
</g>
<g>
</g>
<g>
</g>
<g>
</g>
<g>
</g>
<g>
</g>
<g>
</g>
</svg>
