<?xml version="1.0" encoding="iso-8859-1"?>
<!-- Generator: Adobe Illustrator 16.0.4, SVG Export Plug-In . SVG Version: 6.00 Build 0)  -->
<!DOCTYPE svg PUBLIC "-//W3C//DTD SVG 1.1//EN" "http://www.w3.org/Graphics/SVG/1.1/DTD/svg11.dtd">
<svg version="1.1" id="Capa_1" xmlns="http://www.w3.org/2000/svg" xmlns:xlink="http://www.w3.org/1999/xlink" x="0px" y="0px"
	 width="49.142px" height="83.977px" viewBox="0 0 49.142 83.977" style="enable-background:new 0 0 49.142 83.977;"
	 xml:space="preserve">
<g id="_x32_5">
	<g>
		<path d="M41.93,31.767c-0.681-3.509-3.771-6.165-7.473-6.165h-6.815V11.053l12.126-8.248c0.7-0.477,0.883-1.431,0.406-2.133
			c-0.476-0.702-1.436-0.883-2.135-0.405L25.243,8.971c-0.421,0.285-0.673,0.759-0.673,1.27v15.361h-8.665
			c-3.682,0-6.76,2.625-7.465,6.145H7.617C3.416,31.746,0,35.164,0,39.427c0,0.85,0.687,1.536,1.535,1.536h4.811L12.3,82.656
			c0.108,0.759,0.756,1.32,1.521,1.32H35.32c0.765,0,1.413-0.562,1.521-1.32l5.954-41.693h4.811c0.85,0,1.536-0.747,1.536-1.596
			C49.142,35.301,45.942,31.979,41.93,31.767z M15.905,28.674h18.552c1.989,0,3.686,1.287,4.299,3.072h-27.15
			C12.219,29.961,13.915,28.674,15.905,28.674z M33.988,80.904H15.152L9.449,40.963h30.242L33.988,80.904z M3.317,37.891
			c0.613-1.785,2.31-3.072,4.3-3.072h33.907c1.99,0,3.687,1.287,4.3,3.072H3.317z M24.763,62.302c5.095,0,9.239-4.144,9.239-9.241
			s-4.145-9.241-9.239-9.241s-9.239,4.144-9.239,9.241S19.668,62.302,24.763,62.302z M24.763,46.556c3.584,0,6.501,2.92,6.501,6.505
			c0,3.586-2.917,6.505-6.501,6.505s-6.501-2.919-6.501-6.505C18.262,49.476,21.179,46.556,24.763,46.556z"/>
	</g>
</g>
<g>
</g>
<g>
</g>
<g>
</g>
<g>
</g>
<g>
</g>
<g>
</g>
<g>
</g>
<g>
</g>
<g>
</g>
<g>
</g>
<g>
</g>
<g>
</g>
<g>
</g>
<g>
</g>
<g>
</g>
</svg>
