<?xml version="1.0" encoding="iso-8859-1"?>
<!-- Generator: Adobe Illustrator 16.0.4, SVG Export Plug-In . SVG Version: 6.00 Build 0)  -->
<!DOCTYPE svg PUBLIC "-//W3C//DTD SVG 1.1//EN" "http://www.w3.org/Graphics/SVG/1.1/DTD/svg11.dtd">
<svg version="1.1" id="Capa_1" xmlns="http://www.w3.org/2000/svg" xmlns:xlink="http://www.w3.org/1999/xlink" x="0px" y="0px"
	 width="46.233px" height="78.573px" viewBox="0 0 46.233 78.573" style="enable-background:new 0 0 46.233 78.573;"
	 xml:space="preserve">
<g id="_x31_7">
	<g>
		<path d="M40.009,75.501H24.652V50.922c0-0.472-0.217-0.889-0.551-1.17c5.944-0.19,11.506-2.59,15.729-6.816
			c5.417-5.419,7.618-13.499,5.747-21.087L40.475,1.167C40.306,0.483,39.691,0,38.985,0H7.249C6.542,0,5.927,0.483,5.757,1.167
			L0.656,21.849c-1.872,7.588,0.33,15.668,5.747,21.087c4.224,4.227,9.784,6.626,15.729,6.816c-0.334,0.281-0.551,0.698-0.551,1.17
			v24.579H6.224c-0.849,0-1.536,0.688-1.536,1.536c0,0.85,0.688,1.536,1.536,1.536h33.785c0.849,0,1.535-0.687,1.535-1.536
			C41.544,76.188,40.858,75.501,40.009,75.501z M8.451,3.073h29.331l4.814,19.514c0.566,2.296,0.692,4.642,0.429,6.923
			c-2.322-0.205-3.602-1.188-5.051-2.312c-1.813-1.404-3.868-2.997-7.845-2.997c-3.978,0-6.032,1.593-7.846,2.997
			c-1.63,1.264-3.036,2.355-5.964,2.355c-2.924,0-4.331-1.092-5.958-2.355c-1.686-1.305-3.598-2.756-7.048-2.957
			c0.086-0.553,0.188-1.105,0.324-1.654L8.451,3.073z M3.076,27.3c2.543,0.134,3.885,1.15,5.402,2.329
			c1.813,1.404,3.866,2.997,7.842,2.997c3.978,0,6.032-1.593,7.845-2.997c1.631-1.264,3.037-2.355,5.965-2.355
			c2.927,0,4.334,1.092,5.964,2.355c1.568,1.215,3.323,2.565,6.34,2.91c-0.865,3.082-2.483,5.932-4.775,8.225
			c-3.824,3.828-8.911,5.935-14.321,5.935h-0.441c-5.411,0-10.498-2.106-14.322-5.935C5.023,37.211,3.085,32.323,3.076,27.3z"/>
	</g>
</g>
<g>
</g>
<g>
</g>
<g>
</g>
<g>
</g>
<g>
</g>
<g>
</g>
<g>
</g>
<g>
</g>
<g>
</g>
<g>
</g>
<g>
</g>
<g>
</g>
<g>
</g>
<g>
</g>
<g>
</g>
</svg>
