<?xml version="1.0" encoding="iso-8859-1"?>
<!-- Generator: Adobe Illustrator 16.0.4, SVG Export Plug-In . SVG Version: 6.00 Build 0)  -->
<!DOCTYPE svg PUBLIC "-//W3C//DTD SVG 1.1//EN" "http://www.w3.org/Graphics/SVG/1.1/DTD/svg11.dtd">
<svg version="1.1" id="Capa_1" xmlns="http://www.w3.org/2000/svg" xmlns:xlink="http://www.w3.org/1999/xlink" x="0px" y="0px"
	 width="33.785px" height="89.099px" viewBox="0 0 33.785 89.099" style="enable-background:new 0 0 33.785 89.099;"
	 xml:space="preserve">
<g id="_x32_2">
	<g>
		<path d="M33.738,38.044c-0.007-0.032-0.019-0.062-0.028-0.093c-0.027-0.088-0.061-0.172-0.103-0.252
			c-0.015-0.028-0.029-0.056-0.045-0.083c-0.058-0.095-0.123-0.185-0.198-0.265c-0.006-0.006-0.01-0.013-0.016-0.019
			c-0.085-0.088-0.182-0.162-0.286-0.228c-0.008-0.005-0.014-0.013-0.022-0.018l-8.581-5.152c-0.46-0.275-0.937-0.517-1.423-0.736
			V8.941c1.782-0.629,3.071-2.322,3.071-4.362C26.106,2.056,24.054,0,21.529,0h-9.274C9.731,0,7.679,2.056,7.679,4.639
			c0,1.993,1.289,3.678,3.071,4.304v22.257c-0.486,0.22-0.964,0.46-1.424,0.736l-8.581,5.152c-0.009,0.006-0.016,0.014-0.024,0.02
			c-0.103,0.064-0.198,0.139-0.282,0.225c-0.007,0.008-0.013,0.017-0.02,0.024c-0.074,0.079-0.138,0.166-0.194,0.259
			c-0.017,0.028-0.031,0.057-0.046,0.085c-0.042,0.08-0.075,0.163-0.103,0.251c-0.009,0.031-0.021,0.061-0.028,0.093
			C0.019,38.16,0,38.28,0,38.405v43.78c0,3.811,3.1,6.913,6.91,6.913h19.964c3.811,0,6.911-3.103,6.911-6.913v-43.78
			C33.785,38.28,33.766,38.16,33.738,38.044z M12.255,3.072h9.274c0.831,0,1.506,0.676,1.506,1.566c0,0.831-0.675,1.506-1.506,1.506
			h-9.274c-0.83,0-1.505-0.675-1.505-1.565C10.75,3.748,11.425,3.072,12.255,3.072z M19.964,9.218v20.979
			c-2.02-0.418-4.123-0.418-6.143,0V9.218H19.964z M10.907,34.57c3.614-2.166,8.356-2.166,11.971,0l3.829,2.299H7.079L10.907,34.57z
			 M30.714,82.186c0,2.119-1.722,3.841-3.84,3.841H6.91c-2.117,0-3.839-1.722-3.839-3.841V76.81h27.643V82.186z M30.714,73.737
			H3.071V52.23h27.643V73.737z M30.714,49.158H3.071v-9.217h27.643V49.158z M7.679,61.447h18.428c0.849,0,1.536-0.687,1.536-1.536
			c0-0.849-0.688-1.536-1.536-1.536H7.679c-0.85,0-1.536,0.688-1.536,1.536C6.143,60.761,6.829,61.447,7.679,61.447z M7.679,67.592
			h18.428c0.849,0,1.536-0.687,1.536-1.535c0-0.85-0.688-1.537-1.536-1.537H7.679c-0.85,0-1.536,0.688-1.536,1.537
			C6.143,66.905,6.829,67.592,7.679,67.592z"/>
	</g>
</g>
<g>
</g>
<g>
</g>
<g>
</g>
<g>
</g>
<g>
</g>
<g>
</g>
<g>
</g>
<g>
</g>
<g>
</g>
<g>
</g>
<g>
</g>
<g>
</g>
<g>
</g>
<g>
</g>
<g>
</g>
</svg>
