<?xml version="1.0" encoding="iso-8859-1"?>
<!-- Generator: Adobe Illustrator 16.0.4, SVG Export Plug-In . SVG Version: 6.00 Build 0)  -->
<!DOCTYPE svg PUBLIC "-//W3C//DTD SVG 1.1//EN" "http://www.w3.org/Graphics/SVG/1.1/DTD/svg11.dtd">
<svg version="1.1" id="Capa_1" xmlns="http://www.w3.org/2000/svg" xmlns:xlink="http://www.w3.org/1999/xlink" x="0px" y="0px"
	 width="79.289px" height="92.504px" viewBox="0 0 79.289 92.504" style="enable-background:new 0 0 79.289 92.504;"
	 xml:space="preserve">
<g id="_x32_">
	<g>
		<path d="M51.964,50.578h-2.125c-0.799,0-1.448-0.649-1.448-1.448v-3.211c0-0.44,0.248-0.864,0.662-1.134
			c6.363-4.133,10.315-12.179,10.315-20.997C59.368,10.671,50.617,0,39.859,0C29.103,0,20.351,10.671,20.351,23.788
			c0,8.754,3.909,16.771,10.202,20.925c0.414,0.273,0.66,0.701,0.66,1.144v3.273c0,0.799-0.649,1.448-1.447,1.448h-2.333
			C12.307,50.578,0,62.889,0,78.02v11.412c0,1.697,1.375,3.072,3.071,3.072h73.146c1.697,0,3.072-1.375,3.072-3.072v-11.52
			C79.289,62.84,67.031,50.578,51.964,50.578z M39.859,3.072c3.572,0,6.868,1.452,9.564,3.891
			c-2.947,6.099-9.17,10.004-16.087,10.004c-2.912,0-5.768-0.705-8.321-2.033C27.652,7.929,33.298,3.072,39.859,3.072z
			 M29.766,53.65c2.496,0,4.519-2.023,4.519-4.521v-3.273c0-1.504-0.785-2.879-2.04-3.708c-5.244-3.461-8.822-10.383-8.822-18.36
			c0-2.041,0.244-4.008,0.68-5.871c2.859,1.389,6.021,2.122,9.235,2.122c7.693,0,14.657-4.135,18.302-10.682
			c2.878,3.731,4.658,8.815,4.658,14.431c0,8.025-3.622,14.98-8.917,18.421c-1.266,0.822-2.061,2.2-2.061,3.71v3.211
			c0,2.497,2.023,4.521,4.52,4.521h2.125c4.205,0,8.16,1.072,11.607,2.956C62.815,68.737,53.234,78.248,41.2,79.012
			c-0.027-0.104-0.063-0.205-0.093-0.31c2.045-6.008,7.723-10.221,14.204-10.221c0.849,0,1.536-0.687,1.536-1.536
			c0-0.849-0.688-1.536-1.536-1.536c-6.691,0-12.668,3.739-15.8,9.36c-3.132-5.621-9.108-9.36-15.8-9.36
			c-0.849,0-1.536,0.688-1.536,1.536c0,0.85,0.688,1.536,1.536,1.536c6.481,0,12.159,4.213,14.204,10.221
			c-0.028,0.1-0.062,0.197-0.089,0.297C25.964,78.114,16.502,68.673,15.72,56.675c3.481-1.925,7.474-3.024,11.712-3.024H29.766z
			 M12.806,58.566c1.706,13.4,13.082,23.594,26.838,23.594c13.819,0,25.184-10.222,26.85-23.674
			c5.902,4.425,9.722,11.479,9.722,19.426v5.208H64.215v-6.145c0-0.85-0.687-1.536-1.535-1.536s-1.536,0.687-1.536,1.536v12.29
			c0,0.057,0.011,0.111,0.017,0.166H18.128c0.006-0.055,0.017-0.109,0.017-0.166v-12.29c0-0.85-0.687-1.536-1.535-1.536
			s-1.536,0.687-1.536,1.536v6.145H3.071V78.02C3.071,70.095,6.904,63.024,12.806,58.566z M3.071,86.192h12.002v3.073
			c0,0.057,0.011,0.111,0.017,0.166H3.071V86.192z M64.198,89.432c0.006-0.055,0.017-0.109,0.017-0.166v-3.073h12.002v3.239H64.198z
			"/>
	</g>
</g>
<g>
</g>
<g>
</g>
<g>
</g>
<g>
</g>
<g>
</g>
<g>
</g>
<g>
</g>
<g>
</g>
<g>
</g>
<g>
</g>
<g>
</g>
<g>
</g>
<g>
</g>
<g>
</g>
<g>
</g>
</svg>
