<?xml version="1.0" encoding="iso-8859-1"?>
<!-- Generator: Adobe Illustrator 16.0.4, SVG Export Plug-In . SVG Version: 6.00 Build 0)  -->
<!DOCTYPE svg PUBLIC "-//W3C//DTD SVG 1.1//EN" "http://www.w3.org/Graphics/SVG/1.1/DTD/svg11.dtd">
<svg version="1.1" id="Capa_1" xmlns="http://www.w3.org/2000/svg" xmlns:xlink="http://www.w3.org/1999/xlink" x="0px" y="0px"
	 width="49.37px" height="86.829px" viewBox="0 0 49.37 86.829" style="enable-background:new 0 0 49.37 86.829;"
	 xml:space="preserve">
<g id="_x36_">
	<g>
		<path d="M22.594,54.129c1.939,0,3.512-1.572,3.512-3.513c0-1.939-1.572-3.513-3.512-3.513s-3.512,1.573-3.512,3.513
			C19.083,52.557,20.655,54.129,22.594,54.129z M24.399,59.812c0,1.136,0.92,2.057,2.056,2.057s2.057-0.921,2.057-2.057
			c0-1.137-0.921-2.058-2.057-2.058S24.399,58.676,24.399,59.812z M31.004,47.719c1.377,0,2.493-1.117,2.493-2.494
			s-1.116-2.493-2.493-2.493s-2.493,1.116-2.493,2.493S29.627,47.719,31.004,47.719z M49.356,14.154
			c-0.213-3.454-3.014-6.27-6.465-6.499c-0.159-0.011-0.318-0.016-0.476-0.016c-0.68,0-1.337,0.098-1.958,0.279
			c-0.125,0.037-0.252,0.055-0.377,0.055c-0.487,0-0.946-0.269-1.194-0.716c-1.354-2.437-3.952-4.086-6.937-4.086
			c-1.62,0-3.127,0.487-4.382,1.322c-0.226,0.15-0.479,0.223-0.729,0.223c-0.415,0-0.821-0.199-1.075-0.569
			C24.048,1.644,21.1,0,17.836,0C12.581,0,8.25,4.262,8.25,9.52v0.045c0.235,0.495-0.272,0.86-0.774,0.86
			c-0.093,0-0.185-0.013-0.271-0.039c-0.508-0.151-1.025-0.234-1.574-0.234c-0.146,0-0.294,0.006-0.445,0.019
			c-2.328,0.183-4.311,1.734-4.95,3.981c-1.027,3.609,1.45,6.9,4.798,7.271c0,0,0.579,0.002,1.59,0.006l4.552,37.656
			c0.78,6.432,0.022,13.102-2.191,19.192L8.73,78.998c-0.716,1.967-0.425,3.772,0.775,5.485c1.198,1.713,3.162,2.346,5.253,2.346
			h19.798c2.1,0,4.068-0.628,5.267-2.353c1.2-1.726,1.478-3.729,0.686-5.864c-2.293-6.164-3.09-12.67-2.304-19.195l4.556-37.883
			C46.584,21.345,49.599,18.078,49.356,14.154z M37.302,82.622c-0.635,0.912-1.635,1.135-2.746,1.135H14.758
			c-1.105,0-2.104-0.117-2.738-1.023c-0.464-0.663-0.661-1.332-0.589-2.049h26.451C37.947,81.36,37.756,81.969,37.302,82.622z
			 M35.155,58.649c-0.753,6.247-0.146,12.806,1.779,18.963H12.416c1.94-6.129,2.576-12.917,1.809-19.248l-2.854-23.766h26.646
			L35.155,58.649z M38.383,31.526H11.001L9.79,21.438c1.415,0.005,3.07,0.011,4.879,0.018V25.6c0,1.979,1.604,3.583,3.582,3.583
			h0.651c1.978,0,3.581-1.604,3.581-3.583v-4.125c6.928,0.024,13.491,0.051,17.087,0.065L38.383,31.526z M45.246,17.255
			c-0.742,0.79-1.747,1.225-2.827,1.225l-1.597-0.007l-18.327-0.069c-0.003,0-0.007-0.001-0.011-0.001
			c-0.812,0-1.592,0.322-2.168,0.896c-0.578,0.576-0.903,1.359-0.903,2.176V25.6c0,0.281-0.229,0.511-0.51,0.511h-0.651
			c-0.281,0-0.511-0.229-0.511-0.511v-4.144c0-1.693-1.368-3.067-3.061-3.073l-9.441-0.032c-0.704-0.115-1.33-0.518-1.733-1.118
			c-0.307-0.455-0.609-1.213-0.316-2.239c0.28-0.985,1.158-1.676,2.236-1.761c0.069-0.006,0.138-0.009,0.205-0.009
			c0.232,0,0.454,0.034,0.694,0.106c0.371,0.11,0.758,0.167,1.151,0.167c1.372,0,2.658-0.687,3.355-1.791
			c0.476-0.754,0.645-1.64,0.498-2.499c0.165-3.41,3.021-6.135,6.507-6.135c2.14,0,4.206,1.077,5.393,2.812
			c0.816,1.192,2.166,1.905,3.609,1.905c0.866,0,1.706-0.255,2.431-0.736c0.795-0.528,1.722-0.809,2.681-0.809
			c1.764,0,3.394,0.961,4.252,2.506c0.786,1.416,2.272,2.296,3.879,2.296c0.419,0,0.837-0.06,1.241-0.179
			c0.353-0.104,0.721-0.155,1.094-0.155c0.09,0,0.181,0.003,0.271,0.009c1.903,0.127,3.486,1.718,3.604,3.623
			C46.358,15.433,45.987,16.467,45.246,17.255z"/>
	</g>
</g>
<g>
</g>
<g>
</g>
<g>
</g>
<g>
</g>
<g>
</g>
<g>
</g>
<g>
</g>
<g>
</g>
<g>
</g>
<g>
</g>
<g>
</g>
<g>
</g>
<g>
</g>
<g>
</g>
<g>
</g>
</svg>
