<?xml version="1.0" encoding="iso-8859-1"?>
<!-- Generator: Adobe Illustrator 16.0.4, SVG Export Plug-In . SVG Version: 6.00 Build 0)  -->
<!DOCTYPE svg PUBLIC "-//W3C//DTD SVG 1.1//EN" "http://www.w3.org/Graphics/SVG/1.1/DTD/svg11.dtd">
<svg version="1.1" id="Capa_1" xmlns="http://www.w3.org/2000/svg" xmlns:xlink="http://www.w3.org/1999/xlink" x="0px" y="0px"
	 width="52.214px" height="73.737px" viewBox="0 0 52.214 73.737" style="enable-background:new 0 0 52.214 73.737;"
	 xml:space="preserve">
<g id="_x31_2">
	<g>
		<path d="M52.185,17.131c0.073-0.477-0.071-0.967-0.421-1.318l-7.458-7.46l-7.488-7.875C36.527,0.173,36.125,0,35.705,0H7.679
			c-0.102,0-0.2,0.011-0.296,0.03c-0.001,0-0.002,0-0.003,0C7.244,0.057,7.118,0.106,6.998,0.166
			C6.972,0.179,6.947,0.192,6.923,0.207C6.801,0.276,6.687,0.355,6.589,0.454L0.456,6.59c-0.073,0.073-0.14,0.152-0.197,0.238
			c-0.006,0.009-0.01,0.02-0.016,0.029C0.195,6.932,0.152,7.009,0.118,7.091C0.107,7.117,0.103,7.145,0.093,7.172
			C0.069,7.239,0.045,7.306,0.03,7.378C0.011,7.477,0,7.579,0,7.682v64.52c0,0.141,0.025,0.275,0.061,0.405
			c0.009,0.031,0.018,0.06,0.028,0.09c0.043,0.126,0.097,0.248,0.17,0.357c0,0,0,0.001,0.001,0.001
			c0.074,0.112,0.167,0.208,0.268,0.297c0.022,0.02,0.046,0.039,0.07,0.058c0.107,0.083,0.222,0.157,0.35,0.21l0.001,0
			c0.018,0.007,0.036,0.01,0.054,0.017c0.075,0.028,0.151,0.054,0.231,0.07c0.101,0.02,0.202,0.03,0.303,0.03h42.999
			c0.849,0,1.535-0.688,1.535-1.536v-4.608h4.607c0.849,0,1.536-0.688,1.536-1.536V17.282C52.214,17.23,52.19,17.183,52.185,17.131z
			 M36.856,5.245l5.238,5.24l4.639,4.877h-9.877V5.245z M3.071,8.317l3.071-3.072V65.42l-3.071,3.072V8.317z M42.999,70.665H5.243
			l3.071-3.072h34.685V70.665z M49.143,64.52H9.215V3.072h24.57v13.826c0,0.85,0.687,1.536,1.536,1.536h13.821V64.52z
			 M19.964,29.188c0,0.85,0.688,1.536,1.536,1.536h18.428c0.85,0,1.536-0.687,1.536-1.536c0-0.849-0.687-1.536-1.536-1.536H21.5
			C20.651,27.651,19.964,28.339,19.964,29.188z M39.928,33.797H21.5c-0.849,0-1.536,0.687-1.536,1.536
			c0,0.849,0.688,1.536,1.536,1.536h18.428c0.85,0,1.536-0.688,1.536-1.536C41.464,34.483,40.777,33.797,39.928,33.797z
			 M39.928,39.941H21.5c-0.849,0-1.536,0.687-1.536,1.536c0,0.849,0.688,1.536,1.536,1.536h18.428c0.85,0,1.536-0.688,1.536-1.536
			C41.464,40.628,40.777,39.941,39.928,39.941z"/>
	</g>
</g>
<g>
</g>
<g>
</g>
<g>
</g>
<g>
</g>
<g>
</g>
<g>
</g>
<g>
</g>
<g>
</g>
<g>
</g>
<g>
</g>
<g>
</g>
<g>
</g>
<g>
</g>
<g>
</g>
<g>
</g>
</svg>
