<?xml version="1.0" encoding="iso-8859-1"?>
<!-- Generator: Adobe Illustrator 16.0.4, SVG Export Plug-In . SVG Version: 6.00 Build 0)  -->
<!DOCTYPE svg PUBLIC "-//W3C//DTD SVG 1.1//EN" "http://www.w3.org/Graphics/SVG/1.1/DTD/svg11.dtd">
<svg version="1.1" id="Capa_1" xmlns="http://www.w3.org/2000/svg" xmlns:xlink="http://www.w3.org/1999/xlink" x="0px" y="0px"
	 width="27.642px" height="85.258px" viewBox="0 0 27.642 85.258" style="enable-background:new 0 0 27.642 85.258;"
	 xml:space="preserve">
<g id="_x31_3">
	<g>
		<path d="M19.964,28.338V2.305c0-0.85-0.688-2.305-1.536-2.305H9.214c-0.85,0-1.536,1.455-1.536,2.305v25.991
			C3.138,30.53,0,35.192,0,40.586v39.039c0,3.106,2.525,5.633,5.631,5.633h16.38c3.105,0,5.631-2.526,5.631-5.633V40.586
			C27.642,35.227,24.543,30.589,19.964,28.338z M10.749,3.072h6.143v3.072h-6.143V3.072z M10.749,9.217h6.143v18.034
			c-1.024-0.233-2.09-0.368-3.193-0.368c-1.013,0-1.998,0.119-2.949,0.328V9.217z M3.071,49.158h4.606v21.506H3.071V49.158z
			 M24.57,79.625c0,1.411-1.148,2.561-2.56,2.561H5.631c-1.411,0-2.56-1.149-2.56-2.561v-5.889h6.143
			c0.849,0,1.535,0.081,1.535-0.768V48.39c0-0.85-0.687-2.305-1.535-2.305H3.071v-5.499c0-5.861,4.767-10.631,10.872-10.631
			c5.859,0,10.627,4.77,10.627,10.631V79.625z"/>
	</g>
</g>
<g>
</g>
<g>
</g>
<g>
</g>
<g>
</g>
<g>
</g>
<g>
</g>
<g>
</g>
<g>
</g>
<g>
</g>
<g>
</g>
<g>
</g>
<g>
</g>
<g>
</g>
<g>
</g>
<g>
</g>
</svg>
