<?xml version="1.0" encoding="utf-8"?>
<!-- Generator: Adobe Illustrator 19.2.0, SVG Export Plug-In . SVG Version: 6.00 Build 0)  -->
<svg version="1.1" id="Capa_1" xmlns="http://www.w3.org/2000/svg" xmlns:xlink="http://www.w3.org/1999/xlink" x="0px" y="0px"
	 viewBox="0 0 36.9 79.9" style="enable-background:new 0 0 36.9 79.9;" xml:space="preserve">
<style type="text/css">
	.st0{fill:#FFFFFF;}
</style>
<g id="_x32_3">
	<g>
		<path class="st0" d="M36.9,33.6c0-6.8-3.7-12.7-9.2-15.8v-12c0-3.2-2.6-5.8-5.8-5.8H15c-3.2,0-5.8,2.6-5.8,5.8v12
			C3.7,20.9,0,26.9,0,33.6v7.8c0,0,0,0.1,0,0.1c0,0,0,0.1,0,0.1l6.1,36.9c0.1,0.7,0.8,1.3,1.5,1.3h21.5c0.8,0,1.4-0.5,1.5-1.3
			l6.1-36.9c0,0,0-0.1,0-0.1c0,0,0-0.1,0-0.1L36.9,33.6L36.9,33.6z M12.3,5.8c0-1.5,1.2-2.7,2.7-2.7h6.9c1.5,0,2.7,1.2,2.7,2.7v0.4
			H12.3V5.8z M12.3,9.2h12.3v7.2c-1.9-0.7-3.9-1-6-1h-0.3c-2.1,0-4.1,0.4-6,1V9.2z M3.1,33.6c0-8.4,6.8-15.2,15.2-15.2h0.3
			c8.4,0,15.2,6.8,15.2,15.2v6.3H3.1V33.6z M33,46.1H3.9L3.3,43h30.2L33,46.1z M27.9,76.8H9L4.4,49.2h28.1L27.9,76.8z"/>
	</g>
</g>
</svg>
