<svg id="Layer_1" data-name="Layer 1" xmlns="http://www.w3.org/2000/svg" viewBox="0 0 63.2 63.2"><defs><style>.cls-1{fill:none;stroke:#d74527;stroke-miterlimit:10;stroke-width:3px;}.cls-2{fill:#d74527;}.cls-3{fill:#fff;}</style></defs><title>bbar-mark</title><circle class="cls-1" cx="31.6" cy="31.6" r="30.1"/><path class="cls-2" d="M2146.33,2880.22c0-4.26.05-8.52,0-12.78,0-1.37.43-1.75,1.76-1.73,7.33,0.06,14.67,0,22,.07a7,7,0,0,1,6.81,6.87c0,2.5-.33,5-0.35,7.5a29.6,29.6,0,0,0,.34,6.76c0.86,3.79-2.49,8-7.12,7.92-7.26-.11-14.53-0.13-21.8-0.14-1.24,0-1.66-.37-1.63-1.67,0.09-4.26,0-8.53,0-12.79h0Zm1.86,12.25c2.91-.82,3.62-1.84,3.6-4.11-0.06-5.7,0-11.39-.07-17.09a1.16,1.16,0,0,1,1.37-1.4c1.86,0,3.73-.07,5.59,0,3.77,0.14,7.53.46,11.3,0.47,0.89,0,1.79-.9,2.69-1.38l-0.18-.79a17.69,17.69,0,0,0-3.56-.8c-6.37-.12-12.74-0.1-19.1-0.16-1.24,0-1.6.43-1.59,1.71,0.06,5.51,0,11,0,16.55C2148.18,2887.76,2148.18,2890.05,2148.18,2892.47Zm4.6-2.26a2.29,2.29,0,0,0,.72.35c4.85,0.08,9.7.18,14.56,0.17,1.58,0,3.16-.63,3.39-2.37a49.6,49.6,0,0,0,.15-6.54,0.92,0.92,0,0,0-.6-0.56c-1.3-.38-3,1.54-2.89,2.89,0.26,2.65.37,4.1-3,3.87-2.69-.19-5.39-0.16-8.09-0.28A4.17,4.17,0,0,0,2152.78,2890.21Zm-0.1-10.32a1.6,1.6,0,0,0,.53.33c5.52,0,11,.11,16.56,0a2.48,2.48,0,0,0,1.77-1.63,27.57,27.57,0,0,0,0-5.53,2.45,2.45,0,0,0-1-1.64,4.66,4.66,0,0,0-2.28,1.1,2.28,2.28,0,0,0-.1,1.64c0.38,2.25-.09,3.4-1.67,3.46-2.09.07-4.19-.06-6.29-0.05C2157.53,2877.56,2154.65,2877,2152.69,2879.89Zm8.89,6.5v0.07a32.3,32.3,0,0,0,3.23,0,2.64,2.64,0,0,0,1-.81,2.67,2.67,0,0,0-1-1c-2.21-.11-4.44-0.13-6.65-0.05a3,3,0,0,0-1.15.91,3.07,3.07,0,0,0,1.14.89A31.41,31.41,0,0,0,2161.58,2886.39Zm4.31-10.78-0.07-.69a12.86,12.86,0,0,0-2-.39c-1.8-.08-3.6-0.12-5.4-0.07a3.86,3.86,0,0,0-1.37.68,3.72,3.72,0,0,0,1.36.84c1.92,0.13,3.84.17,5.76,0.14A6.45,6.45,0,0,0,2165.9,2875.61Z" transform="translate(-2129.05 -2848.67)"/><path class="cls-3" d="M2148.18,2892.47c0-2.42,0-4.71,0-7,0-5.52.1-11,0-16.55,0-1.29.35-1.73,1.59-1.71,6.37,0.06,12.74,0,19.1.16a17.69,17.69,0,0,1,3.56.8l0.18,0.79c-0.9.48-1.79,1.38-2.69,1.38-3.77,0-7.53-.33-11.3-0.47-1.86-.07-3.72,0-5.59,0a1.16,1.16,0,0,0-1.37,1.4c0,5.7,0,11.39.07,17.09C2151.81,2890.63,2151.09,2891.65,2148.18,2892.47Z" transform="translate(-2129.05 -2848.67)"/><path class="cls-3" d="M2152.78,2890.21a4.17,4.17,0,0,1,4.22-2.47c2.69,0.12,5.4.09,8.09,0.28,3.41,0.23,3.29-1.22,3-3.87-0.13-1.35,1.59-3.26,2.89-2.89a0.92,0.92,0,0,1,.6.56,49.6,49.6,0,0,1-.15,6.54c-0.23,1.74-1.81,2.36-3.39,2.37-4.85,0-9.7-.09-14.56-0.17A2.29,2.29,0,0,1,2152.78,2890.21Z" transform="translate(-2129.05 -2848.67)"/><path class="cls-3" d="M2152.69,2879.89c2-2.92,4.84-2.32,7.52-2.33,2.1,0,4.2.13,6.29,0.05,1.58-.06,2.06-1.21,1.67-3.46a2.28,2.28,0,0,1,.1-1.64,4.66,4.66,0,0,1,2.28-1.1,2.45,2.45,0,0,1,1,1.64,27.57,27.57,0,0,1,0,5.53,2.48,2.48,0,0,1-1.77,1.63c-5.52.11-11,0-16.56,0A1.6,1.6,0,0,1,2152.69,2879.89Z" transform="translate(-2129.05 -2848.67)"/><path class="cls-3" d="M2161.58,2886.39a31.41,31.41,0,0,1-3.41,0,3.07,3.07,0,0,1-1.14-.89,3,3,0,0,1,1.15-.91c2.22-.07,4.44-0.05,6.65.05a2.67,2.67,0,0,1,1,1,2.64,2.64,0,0,1-1,.81,32.3,32.3,0,0,1-3.23,0v-0.07Z" transform="translate(-2129.05 -2848.67)"/><path class="cls-3" d="M2165.9,2875.61a6.45,6.45,0,0,1-1.71.51c-1.92,0-3.85,0-5.76-.14a3.72,3.72,0,0,1-1.36-.84,3.86,3.86,0,0,1,1.37-.68c1.8-.06,3.6,0,5.4.07a12.86,12.86,0,0,1,2,.39Z" transform="translate(-2129.05 -2848.67)"/></svg>