<svg id="Layer_1" data-name="Layer 1" xmlns="http://www.w3.org/2000/svg" viewBox="0 0 234.7 19.3"><defs><style>.cls-1{fill:#d64527;}</style></defs><title>bbar-logo</title><path class="cls-1" d="M362.37,382.55c-2.53,0-5.05,0-7.58,0-0.89,0-1-.53-1-1.15,0-1.78,0-3.55,0-5.33,0-3.86.06-7.71,0-11.57,0-.91.24-1.17,1.11-1.16,4.82,0,9.64,0,14.46,0a4.51,4.51,0,0,1,4.48,4.69c-0.08,2.26,0,4.53,0,6.8,0,1.53,0,3.07,0,4.6,0,1.27-2.26,3.16-4.52,3.07s-4.66,0-7,0h0Zm9.11-17.34a9.46,9.46,0,0,0-2.48-.79c-4.34-.07-8.68,0-13,0a0.72,0.72,0,0,0-.88.9c0.1,2.28.17,4.56,0.15,6.83,0,2.74-.18,5.48-0.23,8.23a1.88,1.88,0,0,0,.53.76,5.72,5.72,0,0,0,1.82-1.51,6.18,6.18,0,0,0,.16-2.55c0-3.14-.13-6.27-0.16-9.41a1.27,1.27,0,0,1,1.47-1.52c2.36,0.06,4.73,0,7.1,0a13,13,0,0,1,2.93.24C369.95,366.64,370.67,366.31,371.47,365.21ZM358.25,379.4l0.13,0.38H360c2.76,0,5.53,0,8.29,0,0.89,0,2,0,2.15-1.17a35.09,35.09,0,0,0,.07-4.37c0-.68-0.49-0.85-1-0.46-0.81.66-1.71,1.21-1.37,2.63S368,378,366.62,378l-5.92,0A2.75,2.75,0,0,0,358.25,379.4Zm6-6.42c1.58,0,3.16,0,4.74,0,1,0,1.57-.3,1.48-1.44s0-2-.07-3.06a6.57,6.57,0,0,0-.45-1.44,12,12,0,0,0-1.62.86,1.1,1.1,0,0,0-.17.85c0.28,2.32.2,2.42-2.11,2.44-1.66,0-3.32-.06-5,0a6.13,6.13,0,0,0-2,.65,2.16,2.16,0,0,0-.58.75,3.18,3.18,0,0,0,.94.34C361,373,362.65,373,364.27,373Zm-3.55,3.56a3,3,0,0,0,.89.43c1.46,0,2.92,0,4.37,0a0.86,0.86,0,0,0,.59-0.52,1,1,0,0,0-.56-0.7c-1.46-.05-2.92-0.05-4.37,0A2.65,2.65,0,0,0,360.72,376.54Zm0.06-7.14-0.05.4a5.24,5.24,0,0,0,1.3.4c1.25,0.05,2.51,0,3.76,0a2.28,2.28,0,0,0,.82-0.44,2.48,2.48,0,0,0-.9-0.51c-1.33-.06-2.67-0.05-4,0A4.88,4.88,0,0,0,360.78,369.4Z" transform="translate(-323.95 -363.34)"/><path class="cls-1" d="M324,372.88c0-2.8,0-5.6,0-8.4a0.93,0.93,0,0,1,1.15-1.14c4.82,0,9.64,0,14.46,0a4.57,4.57,0,0,1,4.47,4.52c0,1.64-.21,3.29-0.23,4.93a19.44,19.44,0,0,0,.22,4.44c0.57,2.49-1.64,5.25-4.68,5.2-4.77-.07-9.54-0.09-14.32-0.09a0.88,0.88,0,0,1-1.07-1.1c0.06-2.8,0-5.6,0-8.4h0Zm1.22,8c1.91-.54,2.38-1.21,2.37-2.7,0-3.74,0-7.48,0-11.23a0.76,0.76,0,0,1,.9-0.92c1.22,0,2.45,0,3.67,0,2.48,0.09,4.95.3,7.42,0.31a4.65,4.65,0,0,0,1.76-.91l-0.12-.52a11.62,11.62,0,0,0-2.34-.53c-4.18-.08-8.37-0.07-12.55-0.11-0.81,0-1.05.28-1,1.13,0,3.62,0,7.25,0,10.87C325.19,377.83,325.19,379.34,325.19,380.93Zm3-1.49a1.5,1.5,0,0,0,.47.23c3.19,0.05,6.37.12,9.56,0.11a2,2,0,0,0,2.23-1.56,32.58,32.58,0,0,0,.1-4.3,0.6,0.6,0,0,0-.39-0.37c-0.85-.25-2,1-1.9,1.9,0.17,1.74.25,2.69-2,2.54-1.77-.12-3.54-0.11-5.31-0.18A2.74,2.74,0,0,0,328.21,379.44Zm-0.06-6.78a1,1,0,0,0,.35.22c3.63,0,7.25.07,10.88,0a1.63,1.63,0,0,0,1.16-1.07,18.11,18.11,0,0,0,0-3.64,1.61,1.61,0,0,0-.64-1.08,3.06,3.06,0,0,0-1.5.72,1.5,1.5,0,0,0-.07,1.08c0.25,1.48-.06,2.23-1.1,2.27-1.38,0-2.76,0-4.13,0C331.33,371.13,329.44,370.74,328.15,372.66Zm5.84,4.27v0a21.22,21.22,0,0,0,2.12,0,1.74,1.74,0,0,0,.65-0.53,1.76,1.76,0,0,0-.63-0.66c-1.45-.07-2.91-0.08-4.37,0a1.94,1.94,0,0,0-.76.6,2,2,0,0,0,.75.59A20.63,20.63,0,0,0,334,376.93Zm2.83-7.08,0-.45a8.45,8.45,0,0,0-1.3-.26c-1.18-.05-2.37-0.08-3.55,0a2.54,2.54,0,0,0-.9.45,2.45,2.45,0,0,0,.89.55c1.26,0.09,2.52.11,3.79,0.09A4.24,4.24,0,0,0,336.83,369.85Z" transform="translate(-323.95 -363.34)"/><path class="cls-1" d="M497.4,376.1l5.66,6.31a8,8,0,0,1-1,.15,52.18,52.18,0,0,0-5.91,0c-1.84.22-2.82-.74-3.8-1.94-1.19-1.46-2.36-2.94-3.58-4.37a2.52,2.52,0,0,0-.89-0.42,4,4,0,0,0-.24.94c0,1.62,0,3.23,0,4.85a0.82,0.82,0,0,1-1,.92h-5.56a0.74,0.74,0,0,1-.87-0.92c0-5.76,0-11.51,0-17.27a0.86,0.86,0,0,1,1-1c5.06,0,10.11,0,15.17,0a4,4,0,0,1,3.9,4,28.83,28.83,0,0,0,0,3.9,3.52,3.52,0,0,1-2.37,4.09,1.32,1.32,0,0,0-.38.28A1.86,1.86,0,0,0,497.4,376.1Zm0.7-11a11.1,11.1,0,0,0-2.51-.63c-4.31-.07-8.61,0-12.92-0.07a1.11,1.11,0,0,0-1.27,1.39c0.05,1.22.09,2.44,0.1,3.66,0,3.71,0,7.42,0,11.13a0.84,0.84,0,0,0,.6.56,2.16,2.16,0,0,0,1.68-2.29,9.07,9.07,0,0,1-.12-0.94c0-3.63.09-7.26,0.07-10.89a0.77,0.77,0,0,1,1-.92c1.5,0,3,0,4.5,0a34.53,34.53,0,0,1,6,.25C496.52,366.65,497.23,366.33,498.1,365.12ZM484.72,373c1.85,0,3.4,0,5,0,2,0,4,.06,6,0.06,0.6,0,1.27,0,1.27-.88,0-1.45,0-2.91-.06-4.36,0-.8-0.56-1-1.21-0.53a2.37,2.37,0,0,0-1.05,2.4c0.16,1.52.05,1.53-1.43,1.53-2,0-3.94,0-5.91,0A2.93,2.93,0,0,0,484.72,373Zm11.36,7a12.34,12.34,0,0,0-.88-1.37c-1.3-1.52-2.65-3-3.92-4.53-0.42-.5-0.82-0.84-1.35-0.31s-0.93.93-.24,1.7c1.49,1.66,2.86,3.43,4.33,5.12a1.35,1.35,0,0,0,1.05.5A3.91,3.91,0,0,0,496.09,380Zm-8.73-10.37a2.78,2.78,0,0,0,.85.51c1.53,0.05,3.06.08,4.59,0.06a1.65,1.65,0,0,0,.65-0.52,1.9,1.9,0,0,0-.72-0.44c-1.45,0-2.9,0-4.35,0A3.82,3.82,0,0,0,487.35,369.63Z" transform="translate(-323.95 -363.34)"/><path class="cls-1" d="M464.94,371.28c3.24,0,6.35,0,9.45,0,1.21,0,1.74.83,1.73,2.06a43,43,0,0,0,0,4.61c0.24,2.55-1.7,4.56-4.53,4.58-3.71,0-7.42,0-11.13,0a4,4,0,0,1-4.07-4.6,73.69,73.69,0,0,0,0-10c-0.13-2.86,1.74-4.34,4.22-4.45,3.67-.16,7.34-0.06,11,0a4.4,4.4,0,0,1,4.55,4.51,1.05,1.05,0,0,1-1.2,1.32c-3.43,0-6.87.05-10.3,0-1,0-1.48.09-1.4,1.31,0.12,1.8-.06,3.62,0,5.43a1.29,1.29,0,0,0,.81.94,40.54,40.54,0,0,0,4.26.06,1.65,1.65,0,0,0,.64-0.52,1.81,1.81,0,0,0-.65-0.65,12.26,12.26,0,0,0-2.36,0c-0.87.07-1.1-.31-1.07-1.1C465,373.59,464.94,372.54,464.94,371.28Zm1.15,3.74c1.17,0,2.22,0,3.26,0a2.13,2.13,0,0,1,1.09.19,4.17,4.17,0,0,1,.07,2,1.7,1.7,0,0,1-1.32.74c-1.89.08-3.79,0-5.69,0a9,9,0,0,0-2.07.54,2.44,2.44,0,0,1-1,.32,1.61,1.61,0,0,1-.43-1.11c0-3,0-6,0-9,0-2,.48-2.54,2.57-2.6s4.42-.07,6.63,0c0.82,0,1.63.22,2.45,0.22A3.46,3.46,0,0,0,473,366a1,1,0,0,0,.45-0.73,0.87,0.87,0,0,0-.58-0.48,8.92,8.92,0,0,0-2.07-.38c-3.16,0-6.32,0-9.48,0-2.34,0-3.6,1.26-3.62,3.55,0,2.8-.09,5.59-0.07,8.39a23.06,23.06,0,0,0,.31,3.28c0.14,0.89.65,0.92,1.37,0.51a3.22,3.22,0,0,1,1.49-.5c3.35,0,6.7.11,10.06,0.11a1.81,1.81,0,0,0,1.88-1.78,24.82,24.82,0,0,0,0-3.78,1.08,1.08,0,0,0-.78-0.7c-1.38-.08-2.76-0.05-4.14,0A1.76,1.76,0,0,0,466.09,375Z" transform="translate(-323.95 -363.34)"/><path class="cls-1" d="M421.39,376l6,6.48c-0.75,0-1.2.08-1.65,0.08a52.3,52.3,0,0,0-5.55.05c-1.74.19-2.71-.71-3.67-1.84-1.22-1.43-2.43-2.87-3.68-4.28A3.28,3.28,0,0,0,412,376a3.84,3.84,0,0,0-.33,1c0,1.53,0,3.06,0,4.59a0.81,0.81,0,0,1-1,1c-1.62,0-3.23,0-4.85,0a0.93,0.93,0,0,1-1.09-1.14q0-8.46,0-16.92a0.94,0.94,0,0,1,1.14-1.15c4.66,0,9.32,0,14,0a5.46,5.46,0,0,1,4.74,2.75,1.94,1.94,0,0,1,.23,1c0,1.41-.12,2.84,0,4.24A3.61,3.61,0,0,1,422.9,375Zm0.89-10.45,0-.45a13.3,13.3,0,0,0-2.78-.65c-4.15-.08-8.29,0-12.44-0.08-1.19,0-1.42.53-1.41,1.48q0.05,6.08.09,12.16c0,0.78-.08,1.56-0.09,2.35,0,0.56.12,1.1,0.88,0.84a2.89,2.89,0,0,0,1.73-2.62c0-3.75,0-7.49,0-11.24,0-.78.18-1.14,1.07-1.1,1.65,0.07,3.31,0,5,0a38.9,38.9,0,0,1,5.19.17A3.33,3.33,0,0,0,422.28,365.55ZM408.74,373h3.16c2.71,0,5.42,0,8.12,0a1.56,1.56,0,0,0,1.21-.79,27.46,27.46,0,0,0,.07-4.23c0-.86-0.74-1.11-1.43-0.61a2.28,2.28,0,0,0-1.22,2.46c0.25,1.07-.25,1.41-1.26,1.4-2,0-3.94,0-5.91,0C410.25,371.18,409.61,371.93,408.74,373Zm5.89,0.35a4.84,4.84,0,0,0-.68.45c-0.85.84-.73,1.37,0.3,2.47,1.34,1.42,2.63,2.89,3.91,4.37,0.63,0.73,1.07.72,1.69,0s0.18-1.36-.33-1.94c-1-1.13-2-2.27-3-3.39C415.89,374.68,415.26,374,414.62,373.38Zm3.17-3.61-0.11-.52c-1.71,0-3.42,0-5.13,0a2.36,2.36,0,0,0-.88.5,2.67,2.67,0,0,0,.95.46c1.33,0,2.67,0,4-.05A4.39,4.39,0,0,0,417.79,369.77Z" transform="translate(-323.95 -363.34)"/><path class="cls-1" d="M401.71,382.53a65.49,65.49,0,0,1-7.22-.1c-0.64-.07-1.31-1.32-1.65-2.15-0.73-1.82-.86-2-2.76-2-1.15,0-2.29,0-3.44,0a1.15,1.15,0,0,0-1.32,1,13.11,13.11,0,0,1-1.32,2.84,1.1,1.1,0,0,1-.83.36c-2.17,0-4.33,0-6.5,0a1.13,1.13,0,0,1-.37-0.19l1.28-2.32c1.42-2.61,2.89-5.21,4.26-7.85s2.59-5.18,3.87-7.78a1.45,1.45,0,0,1,1.57-1,14,14,0,0,0,1.66,0c2.64,0,2.68.11,3.77,2.52,0.95,2.07,2.17,4,3.25,6,0.55,1,1,2.09,1.56,3.12s1.08,2,1.63,3C400,379.47,400.79,380.91,401.71,382.53ZM390,364.41c-0.8,0-1.61,0-2.41,0a1,1,0,0,0-.6.48c-0.32.53-.57,1.1-0.85,1.65-1.49,2.88-3,5.76-4.49,8.63-1,1.86-2,3.71-3,5.57a3.69,3.69,0,0,0,3-1.23c1.31-2.39,2.58-4.81,3.88-7.22C386.88,369.72,387.85,366.87,390,364.41Zm-5.55,11a79.85,79.85,0,0,0,9.63-.06l-4.41-8.09-0.59.13a14,14,0,0,0,.05,3.17,18.25,18.25,0,0,0,1.53,3.28C388.25,373.77,386.08,373.51,384.46,375.41Zm12.1,4.63a1.74,1.74,0,0,0-.08-0.38c-0.7-1.19-1.4-2.37-2.13-3.54a0.65,0.65,0,0,0-.57-0.21,1.61,1.61,0,0,0-.73,2.13c0.48,0.8.94,1.61,1.47,2.38a1.47,1.47,0,0,0,.76.62A8.29,8.29,0,0,0,396.56,380Z" transform="translate(-323.95 -363.34)"/><path class="cls-1" d="M528.93,382.54c-1.81,0-3.63,0-5.44,0a15.86,15.86,0,0,1-3.14-.44,2.77,2.77,0,0,1-2-2.72q0-7-.06-13.92a2.72,2.72,0,0,1,.15-1.16,1.43,1.43,0,0,1,.82-0.81c1.85-.08,3.71-0.09,5.57,0a1.16,1.16,0,0,1,.77.83c0,2.86,0,5.72,0,8.59,0,1.1.05,2.2,0,3.31,0,0.87.56,0.82,1.12,0.82,2.84,0,5.69.06,8.53,0,1.19,0,1.53.33,1.41,1.46a23.6,23.6,0,0,0-.08,3.19,0.77,0.77,0,0,1-1,.94c-2.21,0-4.42,0-6.63,0h0Zm-7.09-3.39a0.63,0.63,0,0,1-.14-0.26c0-3.5-.1-7,0.08-10.5a3.39,3.39,0,0,0-1.2-2.85,2.37,2.37,0,0,0-.81-0.32,3.39,3.39,0,0,0-.23.84c0,2.59,0,5.18,0,7.77,0,1.73,0,3.46,0,5.19,0.05,1.45.68,1.73,1.86,0.95a1.84,1.84,0,0,1,.95-0.38c2.67,0.08,5.35.27,8,.29,1.58,0,3.37.31,4.34-1.84-2.27,0-4.42,0-6.57,0s-4.34-.47-6.15,1.19A0.47,0.47,0,0,1,521.84,379.15Z" transform="translate(-323.95 -363.34)"/><path class="cls-1" d="M550.83,382.6c-2.21,0-4.42.07-6.62,0s-4.18-1.38-4.13-4.19c0.08-4.65.08-9.3,0.05-14a0.84,0.84,0,0,1,1-1c1.7,0,3.4,0,5.09,0,0.91,0,1.14.31,1.13,1.18-0.05,3.64,0,7.29-.05,10.93,0,1.54,0,1.52,1.48,1.52,2.88,0,5.76,0,8.64,0a1,1,0,0,1,1.21,1.14c0,1.1,0,2.21,0,3.31a1,1,0,0,1-1.2,1.16c-2.21,0-4.42,0-6.63,0h0Zm-9.42-17.68a4.69,4.69,0,0,0-.18.87c0,4.26,0,8.52.07,12.78a3.41,3.41,0,0,0,.33,1.23c0.31,0.74.77,0.89,1.48,0.37a2.46,2.46,0,0,1,1.38-.52c3.07,0.07,6.14.2,9.21,0.34,1.47,0.07,2.46-.7,3.56-1.87-0.56,0-.89-0.07-1.22-0.08-2.65,0-5.29,0-7.94,0a5.73,5.73,0,0,0-3.38.72c-0.94.59-1.2,0.08-1.19-.78,0-3.07-.09-6.15.1-9.22A3.6,3.6,0,0,0,541.4,364.93Z" transform="translate(-323.95 -363.34)"/><path class="cls-1" d="M443.85,374.51c-0.51,0-1,.09-1.5.11-0.75,0-1.5,0-2.24.09a2,2,0,0,0-.71.6,2.2,2.2,0,0,0,.78.38q2.6,0.06,5.21,0c0.76,0,1.11.24,1,1a3.45,3.45,0,0,0,0,1.06,0.89,0.89,0,0,1-1.13,1.17c-1.05-.13-1.35.3-1.33,1.34,0,2.14,0,2.14-2.2,2.2h-0.24c-2,.06-2,0.06-2-2,0-1.57,0-1.45-1.62-1.6-1.75-.17-2.9-0.83-2.86-2.85s0.07-3.95,0-5.92a2.77,2.77,0,0,1,3-3c1.24,0,1.57-.45,1.54-1.59-0.06-1.94,0-1.94,1.9-1.95h0.59c1.92,0.06,2,.06,1.91,2,0,1.19.29,1.7,1.53,1.47a0.74,0.74,0,0,1,1,.94c-0.27,2.88.67,2.62-2.66,2.66-1,0-2-.12-3-0.12a6.54,6.54,0,0,0-1.26.24l0,0.45c0.93,0.06,1.87.13,2.8,0.18,1.67,0.09,1.67.08,1.58,1.72C443.83,373.59,443.85,374,443.85,374.51Zm1.15-6-0.14-.42c-2.54,0-5.08-.08-7.62,0-1,0-1.38.93-1.37,1.91q0,3.31,0,6.62c0,0.92.43,1.09,1.22,0.74a2.51,2.51,0,0,1,1-.25c2,0,3.92,0,5.88,0a2.36,2.36,0,0,0,.9-0.53,37.37,37.37,0,0,0-6.33-.14c-1.12.09-1.34,0.19-1.37-1,0-1.61,0-3.21,0-4.82a1.4,1.4,0,0,1,1.64-1.64c1.3,0,2.6.06,3.9,0A15,15,0,0,0,445,368.5Zm-2.11,4c-1.6-1-4.43-.65-4.95.46C439.54,372.85,441.1,373.29,442.88,372.48Zm-2.49-8.13-0.34.28c0,0.62,0,1.25,0,1.87a0.86,0.86,0,0,0,.45.58,0.69,0.69,0,0,0,.61-0.17,4.62,4.62,0,0,0,.14-1.72A2.44,2.44,0,0,0,440.39,364.35ZM440,381.08l0.35,0.29a2.32,2.32,0,0,0,.94-0.76,4.44,4.44,0,0,0-.17-1.71,0.71,0.71,0,0,0-.61-0.13,0.88,0.88,0,0,0-.48.56A15.47,15.47,0,0,0,440,381.08Z" transform="translate(-323.95 -363.34)"/><path class="cls-1" d="M513.62,372.93c0,2.92,0,5.84,0,8.75a1.11,1.11,0,0,1-.69.82c-1.85.07-3.71,0.07-5.56,0a1.25,1.25,0,0,1-.68-1c-0.05-2.21,0-4.42,0-6.63,0-3.47,0-6.94,0-10.41a0.88,0.88,0,0,1,1.07-1.11q2.43,0.05,4.86,0c0.87,0,1.15.25,1.13,1.16-0.07,2.8,0,5.59,0,8.39h0Zm-1.75,8.61a3.24,3.24,0,0,0-.55-0.88c-1.12-.63-1.16-1.63-1.14-2.75,0-2.49,0-5,0-7.46,0-2.1-.49-4.41,2-5.64a1,1,0,0,0,0-.31c-1.2,0-2.41,0-3.61,0a1.1,1.1,0,0,0-.55.86c0,5,0,10-.07,15a0.92,0.92,0,0,0,.94,1.1C509.78,381.56,510.68,381.54,511.87,381.54Z" transform="translate(-323.95 -363.34)"/></svg>