<?xml version="1.0" encoding="utf-8"?>
<!-- Generator: Adobe Illustrator 19.2.0, SVG Export Plug-In . SVG Version: 6.00 Build 0)  -->
<svg version="1.1" id="Capa_1" xmlns="http://www.w3.org/2000/svg" xmlns:xlink="http://www.w3.org/1999/xlink" x="0px" y="0px"
	 viewBox="0 0 79.8 86.8" style="enable-background:new 0 0 79.8 86.8;" xml:space="preserve">
<style type="text/css">
	.st0{fill:#FFFFFF;}
</style>
<g id="_x35_">
	<g>
		<path class="st0" d="M66.9,35.8h-5v-10c1.9-1.8,3-4.4,2.8-7.2c-0.3-4.5-4-8.2-8.5-8.5c-0.2,0-0.4,0-0.6,0c-0.9,0-1.8,0.1-2.6,0.4
			c-0.2,0-0.3,0.1-0.5,0.1c-0.6,0-1.2-0.4-1.6-0.9c-1.8-3.2-5.2-5.4-9.1-5.4c-2.1,0-4.1,0.6-5.7,1.7c-0.3,0.2-0.6,0.3-1,0.3
			c-0.5,0-1.1-0.3-1.4-0.7C31.5,2.2,27.7,0,23.4,0c-6.9,0-12.6,5.6-12.6,12.5v0.1c0.3,0.6-0.4,1.1-1,1.1c-0.1,0-0.2,0-0.4-0.1
			c-0.7-0.2-1.3-0.3-2.1-0.3c-0.2,0-0.4,0-0.6,0c-3.1,0.2-5.7,2.3-6.5,5.2C-0.9,23,1.8,27,5.7,27.9V73c0,7.6,6.2,13.8,13.8,13.8
			h28.5c6.9,0,12.7-5.1,13.7-11.8c10.1-0.5,18.1-8.9,18.1-19.1v-7.3C79.8,41.5,74,35.8,66.9,35.8z M59.1,73c0,6.1-5,11.1-11.1,11.1
			H19.5c-6.1,0-11.1-5-11.1-11.1V28.1c2.2,0,6.1,0,10.8,0v5.4c0,2.6,2.1,4.7,4.7,4.7h0.9c2.6,0,4.7-2.1,4.7-4.7v-5.4
			c11.7,0,25.9,0.1,29.6,0.1L59.1,73L59.1,73z M60.2,23.5c-1.2,1.3-2.9,2-4.6,2l-2.1,0l-24-0.1h0c-0.7,0-1.4,0.3-1.9,0.8
			c-0.5,0.5-0.8,1.2-0.8,2v5.4c0,1.1-0.9,1.9-1.9,1.9h-0.9c-1.1,0-1.9-0.9-1.9-1.9v-5.4c0-1.5-1.2-2.8-2.8-2.8l-12.5,0
			c-1.3-0.2-2.5-0.9-3.2-2c-0.8-1.2-1-2.6-0.6-4c0.5-1.8,2.1-3.1,4.1-3.2c0.1,0,0.2,0,0.4,0c0.4,0,0.8,0.1,1.3,0.2
			c0.4,0.1,0.8,0.2,1.1,0.2c1.4,0,2.6-0.7,3.3-1.8c0.5-0.8,0.6-1.6,0.5-2.5c0.2-5.2,4.5-9.4,9.8-9.4c3.3,0,6.3,1.6,8.1,4.2
			c0.8,1.2,2.2,1.9,3.7,1.9c0.9,0,1.7-0.3,2.5-0.8c1.3-0.8,2.7-1.3,4.2-1.3c2.8,0,5.3,1.5,6.7,3.9c0.8,1.5,2.3,2.4,4,2.4
			c0.4,0,0.9-0.1,1.3-0.2c0.6-0.2,1.2-0.3,1.8-0.3c0.1,0,0.3,0,0.4,0c3.1,0.2,5.7,2.8,5.9,5.9C62.1,20.5,61.5,22.2,60.2,23.5z
			 M77,56c0,8.6-6.7,15.7-15.2,16.3V38.5h5c5.6,0,10.1,4.6,10.1,10.1V56z M19.9,40.9c-0.8,0-1.5,0.7-1.5,1.5v30.7
			c0,0.8,0.7,1.5,1.5,1.5c0.9,0,1.5-0.7,1.5-1.5V42.4C21.5,41.6,20.8,40.9,19.9,40.9z M27.6,42.4v30.7c0,0.8,0.7,1.5,1.5,1.5
			c0.8,0,1.5-0.7,1.5-1.5V42.4c0-0.8-0.7-1.5-1.5-1.5C28.3,40.9,27.6,41.6,27.6,42.4z M38.4,74.7c0.8,0,1.5-0.7,1.5-1.5V42.4
			c0-0.8-0.7-1.5-1.5-1.5s-1.5,0.7-1.5,1.5v30.7C36.8,74,37.5,74.7,38.4,74.7z M47.6,74.7c0.8,0,1.5-0.7,1.5-1.5V42.4
			c0-0.8-0.7-1.5-1.5-1.5S46,41.6,46,42.4v30.7C46,74,46.7,74.7,47.6,74.7z"/>
	</g>
</g>
</svg>
