<?xml version="1.0" encoding="utf-8"?>
<!-- Generator: Adobe Illustrator 19.2.0, SVG Export Plug-In . SVG Version: 6.00 Build 0)  -->
<svg version="1.1" id="Capa_1" xmlns="http://www.w3.org/2000/svg" xmlns:xlink="http://www.w3.org/1999/xlink" x="0px" y="0px"
	 viewBox="0 0 74.1 79.8" style="enable-background:new 0 0 74.1 79.8;" xml:space="preserve">
<style type="text/css">
	.st0{fill:#FFFFFF;}
</style>
<g id="_x31_9">
	<g>
		<path class="st0" d="M51,40.5l22.7-22.7c0.4-0.4,0.6-1.1,0.3-1.7c-0.2-0.6-0.8-0.9-1.4-0.9H32.8C32.2,6.7,25.1,0,16.4,0
			C7.4,0,0,7.4,0,16.4c0,9.1,7.4,16.5,16.4,16.5c3.1,0,6-0.8,8.5-2.4l10,10c1.8,1.8,4,2.9,6.5,3.2v33H29.2c-0.8,0-1.5,0.7-1.5,1.5
			c0,0.8,0.7,1.5,1.5,1.5h27.6c0.8,0,1.5-0.7,1.5-1.5c0-0.8-0.7-1.5-1.5-1.5H44.5v-33C47,43.4,49.2,42.3,51,40.5z M59.6,27.5H26.4
			l-9.2-9.2h51.7L59.6,27.5z M16.4,29.8c-7.4,0-13.4-6-13.4-13.4c0-7.4,6-13.4,13.4-13.4c7,0,12.7,5.4,13.3,12.2H13.4
			c-0.6,0-1.2,0.4-1.4,0.9c-0.2,0.6-0.1,1.2,0.3,1.7l10.4,10.4C20.8,29.3,18.7,29.8,16.4,29.8z M29.4,30.6h27.1l-7.7,7.7
			c-3.1,3.1-8.5,3.1-11.6,0L29.4,30.6z"/>
	</g>
</g>
</svg>
