<?xml version="1.0" encoding="utf-8"?>
<!-- Generator: Adobe Illustrator 19.2.0, SVG Export Plug-In . SVG Version: 6.00 Build 0)  -->
<svg version="1.1" id="Capa_1" xmlns="http://www.w3.org/2000/svg" xmlns:xlink="http://www.w3.org/1999/xlink" x="0px" y="0px"
	 viewBox="0 0 79.9 61.4" style="enable-background:new 0 0 79.9 61.4;" xml:space="preserve">
<style type="text/css">
	.st0{fill:#FFFFFF;}
</style>
<g id="_x32_1">
	<g>
		<path class="st0" d="M56.2,29.4c1.3,0,2.4-1.1,2.4-2.4c0-1.3-1.1-2.4-2.4-2.4c-1.3,0-2.4,1.1-2.4,2.4
			C53.7,28.4,54.8,29.4,56.2,29.4z M59.3,19.5c1,0,1.7-0.8,1.7-1.7s-0.8-1.7-1.7-1.7s-1.7,0.8-1.7,1.7S58.3,19.5,59.3,19.5z
			 M78.3,58.4H66.5c1.6-1.7,2.7-4.1,2.7-6.7V1.5c0-0.8-0.7-1.5-1.5-1.5H46.1c-0.8,0-1.5,0.7-1.5,1.5v50.2c0,2.6,1,4.9,2.7,6.7H34.3
			c1.2-1.2,2-2.8,2.4-4.5l4.7-21.2c0.1-0.5,0-0.9-0.3-1.3c-0.3-0.4-0.7-0.6-1.2-0.6H6.1c-0.5,0-0.9,0.2-1.2,0.6
			c-0.3,0.4-0.4,0.8-0.3,1.3l4.7,21.2c0.4,1.8,1.2,3.3,2.4,4.5H1.5c-0.8,0-1.5,0.7-1.5,1.5s0.7,1.5,1.5,1.5h76.8
			c0.8,0,1.5-0.7,1.5-1.5C79.9,59.1,79.2,58.4,78.3,58.4z M8.1,33.8h30l-1.4,6.1H9.4L8.1,33.8z M27.2,58.4h-8.4
			c-3.1,0-5.8-2.1-6.5-5.2L10.1,43H36l-2.3,10.2C33,56.2,30.4,58.4,27.2,58.4z M66,51.7c0,3.7-3,6.7-6.7,6.7h-5.1
			c-3.7,0-6.7-3-6.7-6.7v-7.8c2.1,2.5,5.1,3.9,8.4,3.9c2.1,0,4.1-0.6,5.9-1.7c1.8-1.1,3.2-2.8,4.1-4.6V51.7z M49.9,41.9l4.4-2.8
			l-0.5,5.3C52.4,43.9,51,43.1,49.9,41.9z M59.4,35.9l3.9-2.5c0.7,1.6,0.9,3.3,0.5,5.1c0,0.2-0.1,0.4-0.2,0.6L59.4,35.9z M62.2,41.8
			c-0.5,0.6-1.1,1.2-1.9,1.6c-1,0.6-2.2,1-3.3,1.1l0.6-6.3L62.2,41.8z M66,32.1c-0.2-0.4-0.4-0.8-0.7-1.2c-0.1-0.1-0.2-0.3-0.3-0.4
			c-0.5-0.7-1.4-0.9-2.1-0.4l-15.4,9.7V12.3H66V32.1z M66,9.2H47.6V3.1H66V9.2z"/>
	</g>
</g>
</svg>
