<?xml version="1.0" encoding="utf-8"?>
<!-- Generator: Adobe Illustrator 19.2.0, SVG Export Plug-In . SVG Version: 6.00 Build 0)  -->
<svg version="1.1" id="Capa_1" xmlns="http://www.w3.org/2000/svg" xmlns:xlink="http://www.w3.org/1999/xlink" x="0px" y="0px"
	 viewBox="0 0 33.8 89.1" style="enable-background:new 0 0 33.8 89.1;" xml:space="preserve">
<style type="text/css">
	.st0{fill:#FFFFFF;}
</style>
<g id="_x32_2">
	<g>
		<path class="st0" d="M33.7,38C33.7,38,33.7,38,33.7,38c-0.1-0.2-0.1-0.3-0.1-0.3c0,0,0-0.1,0-0.1c-0.1-0.1-0.1-0.2-0.2-0.3
			c0,0,0,0,0,0c-0.1-0.1-0.2-0.2-0.3-0.2c0,0,0,0,0,0l-8.6-5.2c-0.5-0.3-0.9-0.5-1.4-0.7V8.9c1.8-0.6,3.1-2.3,3.1-4.4
			c0-2.5-2.1-4.6-4.6-4.6h-9.3C9.7,0,7.7,2.1,7.7,4.6c0,2,1.3,3.7,3.1,4.3v22.3c-0.5,0.2-1,0.5-1.4,0.7l-8.6,5.2c0,0,0,0,0,0
			c-0.1,0.1-0.2,0.1-0.3,0.2c0,0,0,0,0,0c-0.1,0.1-0.1,0.2-0.2,0.3c0,0,0,0.1,0,0.1c0,0.1-0.1,0.2-0.1,0.3c0,0,0,0.1,0,0.1
			c0,0.1,0,0.2,0,0.4v43.8c0,3.8,3.1,6.9,6.9,6.9h20c3.8,0,6.9-3.1,6.9-6.9V38.4C33.8,38.3,33.8,38.2,33.7,38z M12.3,3.1h9.3
			c0.8,0,1.5,0.7,1.5,1.6c0,0.8-0.7,1.5-1.5,1.5h-9.3c-0.8,0-1.5-0.7-1.5-1.6C10.8,3.7,11.4,3.1,12.3,3.1z M20,9.2v21
			c-2-0.4-4.1-0.4-6.1,0v-21H20z M10.9,34.6c3.6-2.2,8.4-2.2,12,0l3.8,2.3H7.1L10.9,34.6z M30.7,82.2c0,2.1-1.7,3.8-3.8,3.8h-20
			c-2.1,0-3.8-1.7-3.8-3.8v-5.4h27.6C30.7,76.8,30.7,82.2,30.7,82.2z M30.7,73.7H3.1V52.2h27.6V73.7z M30.7,49.2H3.1v-9.2h27.6V49.2
			z M7.7,61.4h18.4c0.8,0,1.5-0.7,1.5-1.5s-0.7-1.5-1.5-1.5H7.7c-0.8,0-1.5,0.7-1.5,1.5C6.1,60.8,6.8,61.4,7.7,61.4z M7.7,67.6h18.4
			c0.8,0,1.5-0.7,1.5-1.5c0-0.8-0.7-1.5-1.5-1.5H7.7c-0.8,0-1.5,0.7-1.5,1.5C6.1,66.9,6.8,67.6,7.7,67.6z"/>
	</g>
</g>
</svg>
