<?xml version="1.0" encoding="utf-8"?>
<!-- Generator: Adobe Illustrator 19.2.0, SVG Export Plug-In . SVG Version: 6.00 Build 0)  -->
<svg version="1.1" id="Capa_1" xmlns="http://www.w3.org/2000/svg" xmlns:xlink="http://www.w3.org/1999/xlink" x="0px" y="0px"
	 viewBox="0 0 30.7 78.3" style="enable-background:new 0 0 30.7 78.3;" xml:space="preserve">
<style type="text/css">
	.st0{fill:#FFFFFF;}
</style>
<g id="_x31_4">
	<g>
		<path class="st0" d="M29.2,75.3H16.9V42.9c6.9-0.7,12.3-6.5,12.3-13.6V1.5c0-0.8-0.7-1.5-1.5-1.5H3.1C2.2,0,1.5,0.7,1.5,1.5v27.8
			c0,7.1,5.4,12.9,12.3,13.6v32.3H1.5C0.7,75.3,0,76,0,76.8c0,0.8,0.7,1.5,1.5,1.5h27.6c0.9,0,1.5-0.7,1.5-1.5
			C30.7,76,30,75.3,29.2,75.3z M4.6,3.1h21.5v23H4.6V3.1z M4.6,29.3v-0.1h21.5v0.1c0,5.9-4.8,10.6-10.6,10.6h-0.2
			C9.4,39.9,4.6,35.2,4.6,29.3z"/>
	</g>
</g>
</svg>
