<?xml version="1.0" encoding="utf-8"?>
<!-- Generator: Adobe Illustrator 19.2.0, SVG Export Plug-In . SVG Version: 6.00 Build 0)  -->
<svg version="1.1" id="Capa_1" xmlns="http://www.w3.org/2000/svg" xmlns:xlink="http://www.w3.org/1999/xlink" x="0px" y="0px"
	 viewBox="0 0 55.7 85.6" style="enable-background:new 0 0 55.7 85.6;" xml:space="preserve">
<style type="text/css">
	.st0{fill:#FFFFFF;}
</style>
<g id="_x32_0">
	<g>
		<path class="st0" d="M51.4,21.1h-3.9l8.1-19c0.3-0.8,0-1.7-0.8-2c-0.8-0.3-1.7,0-2,0.8l-8.6,20.2H32.8
			c-0.6-8.5-7.7-15.2-16.4-15.2C7.4,5.9,0,13.3,0,22.3s7.4,16.5,16.4,16.5c2.6,0,5.1-0.6,7.4-1.8c0.2,2.3-0.3,4.6-1.5,6.7
			c-2,3.4-2.7,7.3-2,11.3c1.1,6.6,6.3,12,12.8,13.4c0.7,0.2,1.5,0.2,2.2,0.3v13.9H23c-0.9,0-1.5,0.7-1.5,1.5c0,0.8,0.7,1.5,1.5,1.5
			h27.6c0.8,0,1.5-0.7,1.5-1.5c0-0.8-0.7-1.5-1.5-1.5H38.4V68.6c3.8-0.4,7.3-2,10-4.8c3.1-3.1,4.9-7.3,4.9-11.8
			c0-2.8-0.7-5.6-2.1-8.1c-2.7-4.8-2-10.4,1.6-14l1.6-1.6c1.2-1.2,1.6-3,0.9-4.7C54.7,22.1,53.2,21.1,51.4,21.1z M16.4,35.7
			c-7.4,0-13.4-6-13.4-13.4C3.1,15,9.1,9,16.4,9c7,0,12.7,5.4,13.3,12.2H22c-1.8,0-3.3,1-3.9,2.6c-0.7,1.6-0.3,3.4,0.9,4.7l1.6,1.6
			c1.1,1.1,2,2.5,2.6,3.9C21.1,35.1,18.8,35.7,16.4,35.7z M25,45.3c3.3-5.6,2.4-12.8-2.3-17.4l-1.6-1.6c-0.5-0.5-0.3-1.1-0.3-1.3
			c0.1-0.2,0.4-0.7,1.1-0.7h20.9L32.4,48.8h-8.9C23.9,47.5,24.3,46.4,25,45.3z M46.3,61.7c-3.2,3.2-7.9,4.6-12.5,3.7
			c-5.3-1.1-9.5-5.5-10.4-10.9c-0.1-0.9-0.2-1.7-0.2-2.6h27.1c0,0.1,0,0.2,0,0.2C50.2,55.7,48.8,59.1,46.3,61.7z M52.2,26.2
			l-1.6,1.6c-4.6,4.6-5.5,11.7-2.1,17.7c0.6,1,1,2.1,1.3,3.3H35.7l10.4-24.6h5.2c0.7,0,1,0.6,1.1,0.7C52.6,25.1,52.8,25.7,52.2,26.2
			z"/>
	</g>
</g>
</svg>
