<?xml version="1.0" encoding="utf-8"?>
<!-- Generator: Adobe Illustrator 19.2.0, SVG Export Plug-In . SVG Version: 6.00 Build 0)  -->
<svg version="1.1" id="Capa_1" xmlns="http://www.w3.org/2000/svg" xmlns:xlink="http://www.w3.org/1999/xlink" x="0px" y="0px"
	 viewBox="0 0 46.2 78.6" style="enable-background:new 0 0 46.2 78.6;" xml:space="preserve">
<style type="text/css">
	.st0{fill:#FFFFFF;}
</style>
<g id="_x31_7">
	<g>
		<path class="st0" d="M40,75.5H24.7V50.9c0-0.5-0.2-0.9-0.6-1.2c5.9-0.2,11.5-2.6,15.7-6.8c5.4-5.4,7.6-13.5,5.7-21.1L40.5,1.2
			C40.3,0.5,39.7,0,39,0H7.2C6.5,0,5.9,0.5,5.8,1.2L0.7,21.8C-1.2,29.4,1,37.5,6.4,42.9c4.2,4.2,9.8,6.6,15.7,6.8
			c-0.3,0.3-0.6,0.7-0.6,1.2v24.6H6.2c-0.8,0-1.5,0.7-1.5,1.5c0,0.8,0.7,1.5,1.5,1.5H40c0.8,0,1.5-0.7,1.5-1.5
			C41.5,76.2,40.9,75.5,40,75.5z M8.5,3.1h29.3l4.8,19.5c0.6,2.3,0.7,4.6,0.4,6.9c-2.3-0.2-3.6-1.2-5.1-2.3c-1.8-1.4-3.9-3-7.8-3
			c-4,0-6,1.6-7.8,3c-1.6,1.3-3,2.4-6,2.4c-2.9,0-4.3-1.1-6-2.4c-1.7-1.3-3.6-2.8-7-3c0.1-0.6,0.2-1.1,0.3-1.7L8.5,3.1z M3.1,27.3
			c2.5,0.1,3.9,1.1,5.4,2.3c1.8,1.4,3.9,3,7.8,3c4,0,6-1.6,7.8-3c1.6-1.3,3-2.4,6-2.4c2.9,0,4.3,1.1,6,2.4c1.6,1.2,3.3,2.6,6.3,2.9
			c-0.9,3.1-2.5,5.9-4.8,8.2c-3.8,3.8-8.9,5.9-14.3,5.9h-0.4c-5.4,0-10.5-2.1-14.3-5.9C5,37.2,3.1,32.3,3.1,27.3z"/>
	</g>
</g>
</svg>
